<?xml version="1.0" encoding="utf-8"?>
<!-- Generator: Adobe Illustrator 27.4.1, SVG Export Plug-In . SVG Version: 6.00 Build 0)  -->
<svg version="1.1" id="圖層_1" xmlns="http://www.w3.org/2000/svg" xmlns:xlink="http://www.w3.org/1999/xlink" x="0px" y="0px"
	 viewBox="0 0 100 100" style="enable-background:new 0 0 100 100;" xml:space="preserve">
<style type="text/css">
	.st0{fill:#835696;}
	.st1{fill:#FFFFFF;}
</style>
<circle class="st0" cx="50" cy="50" r="42.59"/>
<g>
	<path class="st1" d="M45.76,43.4l-8.23-1.47c0.68-2.62,2-4.63,3.94-6.03c1.94-1.4,4.7-2.09,8.26-2.09c4.09,0,7.05,0.76,8.87,2.29
		c1.82,1.52,2.74,3.44,2.74,5.75c0,1.35-0.37,2.58-1.11,3.68c-0.74,1.1-1.86,2.06-3.36,2.89c1.21,0.3,2.14,0.65,2.78,1.05
		c1.04,0.64,1.85,1.49,2.43,2.53c0.58,1.05,0.87,2.3,0.87,3.75c0,1.82-0.48,3.57-1.43,5.25c-0.95,1.67-2.33,2.96-4.12,3.87
		c-1.8,0.9-4.15,1.36-7.07,1.36c-2.85,0-5.1-0.34-6.74-1c-1.65-0.67-3-1.65-4.06-2.94c-1.06-1.29-1.88-2.91-2.45-4.86l8.7-1.15
		c0.34,1.75,0.87,2.97,1.59,3.64c0.72,0.68,1.63,1.02,2.75,1.02c1.17,0,2.14-0.43,2.92-1.28c0.78-0.86,1.16-1.99,1.16-3.42
		c0-1.45-0.37-2.58-1.12-3.38c-0.75-0.8-1.76-1.2-3.05-1.2c-0.68,0-1.62,0.17-2.82,0.51l0.45-6.22c0.48,0.07,0.86,0.11,1.13,0.11
		c1.14,0,2.09-0.36,2.85-1.09c0.76-0.73,1.14-1.59,1.14-2.59c0-0.95-0.29-1.72-0.86-2.29c-0.57-0.57-1.35-0.86-2.35-0.86
		c-1.03,0-1.86,0.31-2.5,0.93C46.42,40.76,45.99,41.84,45.76,43.4z"/>
</g>
</svg>
