<?xml version="1.0" encoding="utf-8"?>
<!-- Generator: Adobe Illustrator 27.4.1, SVG Export Plug-In . SVG Version: 6.00 Build 0)  -->
<svg version="1.1" id="圖層_1" xmlns="http://www.w3.org/2000/svg" xmlns:xlink="http://www.w3.org/1999/xlink" x="0px" y="0px"
	 viewBox="0 0 100 100" style="enable-background:new 0 0 100 100;" xml:space="preserve">
<style type="text/css">
	.st0{fill:#835696;}
	.st1{fill:#FFFFFF;}
</style>
<circle class="st0" cx="50" cy="50" r="42.59"/>
<g>
	<path class="st1" d="M63.28,66.2H36.72c0.3-2.62,1.23-5.09,2.77-7.4c1.54-2.31,4.44-5.04,8.68-8.18c2.59-1.93,4.25-3.39,4.98-4.39
		c0.72-1,1.09-1.95,1.09-2.85c0-0.97-0.36-1.8-1.08-2.49c-0.72-0.69-1.62-1.03-2.71-1.03c-1.13,0-2.05,0.35-2.77,1.06
		c-0.72,0.71-1.2,1.96-1.45,3.76l-8.87-0.72c0.35-2.49,0.99-4.44,1.91-5.83s2.23-2.47,3.92-3.22c1.69-0.75,4.02-1.12,7.01-1.12
		c3.11,0,5.54,0.36,7.27,1.06c1.73,0.71,3.09,1.8,4.09,3.27c0.99,1.47,1.49,3.12,1.49,4.94c0,1.94-0.57,3.8-1.71,5.56
		c-1.14,1.77-3.2,3.71-6.2,5.82c-1.78,1.23-2.97,2.09-3.57,2.59c-0.6,0.49-1.31,1.14-2.12,1.93h13.82V66.2z"/>
</g>
</svg>
