<?xml version="1.0" encoding="UTF-8"?>
<svg id="_圖層_1" data-name="圖層 1" xmlns="http://www.w3.org/2000/svg" xmlns:xlink="http://www.w3.org/1999/xlink" viewBox="0 0 350 238">
  <defs>
    <style>
      .cls-1 {
        fill: #eba2a7;
      }

      .cls-2 {
        fill: #fff;
      }

      .cls-3 {
        fill: #fafafb;
      }

      .cls-4 {
        fill: #fbdcc6;
      }

      .cls-5 {
        fill: #fdfefe;
      }

      .cls-6 {
        fill: #d9e4ed;
      }

      .cls-7 {
        fill: #d69435;
      }

      .cls-8 {
        fill: #363a3d;
      }

      .cls-9 {
        fill: #5d8dc7;
      }

      .cls-10 {
        fill: #5079b4;
      }

      .cls-11 {
        fill: url(#_未命名漸層_73);
      }

      .cls-12 {
        fill: url(#_未命名漸層_73-2);
      }

      .cls-13 {
        fill: url(#_未命名漸層_73-3);
      }

      .cls-14 {
        fill: url(#_未命名漸層_73-4);
      }
    </style>
    <linearGradient id="_未命名漸層_73" data-name="未命名漸層 73" x1="313.01" y1="155.08" x2="208.2" y2="94.56" gradientUnits="userSpaceOnUse">
      <stop offset="0" stop-color="#fdf7dc"/>
      <stop offset="1" stop-color="#f9cb8a"/>
    </linearGradient>
    <linearGradient id="_未命名漸層_73-2" data-name="未命名漸層 73" x1="322.62" y1="138.43" x2="217.81" y2="77.92" xlink:href="#_未命名漸層_73"/>
    <linearGradient id="_未命名漸層_73-3" data-name="未命名漸層 73" x1="320.54" y1="147.42" x2="213.4" y2="85.56" xlink:href="#_未命名漸層_73"/>
    <linearGradient id="_未命名漸層_73-4" data-name="未命名漸層 73" x1="318.21" y1="146.07" x2="213.4" y2="85.56" xlink:href="#_未命名漸層_73"/>
  </defs>
  <path class="cls-4" d="M129.82,229.59c1.47-2.38,2.65-4.67,3.59-6.86,6.21-14.46,1.87-24.52-.84-28.77l2.53-6.75c2.99,.64,6.85,1.22,10.77,1.21,5.67-.02,11.45-1.33,14.99-5.6,1.08-1.3,1.97-2.84,2.56-4.73,.31-1.01,.49-2,.56-2.99,.16-2.28-.31-4.48-1.44-6.47-.09-.16-.21-.31-.31-.47-1.62-2.57-4.2-4.6-7.31-6.23-3.64-1.92-7.99-3.31-12.3-4.47-2.21-.6-4.42-1.13-6.51-1.64l-2.86-.69c-3.52-.88-7.22-.67-10.8,.11-3.1,.67-6.11,1.77-8.81,3.01l-3.73-26.18c-33.84,21.24-25.45,26.56-24.97,31.29,.5,4.92-3.03,15.79-3.03,22.35s-4.04,46.45-4.54,51.5c-.14,1.45-1.17,3.73-2.55,6.25,3.56,9.88,13.02,17,24.08,17h26.5l5.5-9.62c12.03-2.41,21.19-14.37,26.73-23.49l-21.47,3.06c-2.22,.32-4.38-.01-6.32-.82Z"/>
  <path class="cls-10" d="M141.04,69.35v11.81l60.29-8.59c3.29-.47,6.37,1.84,6.84,5.14l1.33,9.36c3.77-6.35,8.63-11.88,14.28-16.4l-2.01-14.1c-.94-6.59-7.1-11.21-13.69-10.27l-77.61,11.06c5.93,.76,10.56,5.86,10.56,11.99Zm20.04-8.44c.83-.12,1.59,.46,1.71,1.28,.12,.83-.46,1.59-1.28,1.71-.83,.12-1.59-.46-1.71-1.28-.12-.83,.46-1.59,1.28-1.71Zm-10.95,6.68l23.34-3.33c1.57-.22,3.05,.88,3.27,2.45h0c.22,1.57-.88,3.05-2.45,3.27l-23.34,3.33c-1.57,.22-3.05-.88-3.27-2.45-.22-1.57,.88-3.05,2.45-3.27Z"/>
  <path class="cls-10" d="M233.65,204.68c.47,3.29-1.84,6.37-5.14,6.84l-1.93,.27-5.3,.76-75.64,10.78h0l-5.3,.76h0s-1.93,.27-1.93,.27c-1.9,.27-3.7-.4-5-1.63-.94,2.19-2.12,4.47-3.59,6.86,1.94,.81,4.1,1.13,6.32,.82l21.47-3.06,74.77-10.65c6.59-.94,11.21-7.1,10.27-13.69l-4.15-29.12c-3.53-1.45-6.87-3.21-9.99-5.25l5.14,36.05Z"/>
  <path class="cls-10" d="M122.45,155.24l-3.33-23.4c-.47-3.29,1.84-6.37,5.14-6.84l1.24-.18-2.76-19.35h-16.62l3.79,26.6,3.73,26.18c2.7-1.24,5.71-2.34,8.81-3.01Z"/>
  <path class="cls-5" d="M201.33,72.57l-60.29,8.59v12.2c0,6.65-5.44,12.1-12.1,12.1h-6.21l2.76,19.35,75.68-10.78c.18-2.7,.52-5.41,1.08-8.14,1.39-6.83,3.89-13.15,7.26-18.82l-1.33-9.36c-.47-3.29-3.55-5.61-6.84-5.14Z"/>
  <polygon class="cls-5" points="145.64 223.34 221.28 212.56 145.64 223.34 145.64 223.34"/>
  <path class="cls-2" d="M124.25,124.99c-3.29,.47-5.61,3.55-5.14,6.84l3.33,23.4c3.58-.78,7.28-.99,10.8-.11l2.86,.69c2.1,.51,4.3,1.04,6.51,1.64,.55-.67,1.32-1.15,2.24-1.28l58.41-8.32c1.94-.28,3.75,1.08,4.02,3.02,.28,1.94-1.08,3.75-3.02,4.02l-49.36,7.03c3.11,1.64,5.69,3.67,7.31,6.23l43.06-6.14c1.94-.28,3.75,1.08,4.02,3.02s-1.08,3.75-3.02,4.02l-42.31,6.03c-.07,.98-.25,1.98-.56,2.99-.59,1.9-1.48,3.44-2.56,4.73l46.45-6.62c1.94-.28,3.75,1.08,4.02,3.02h0c.28,1.94-1.08,3.75-3.02,4.02l-58.41,8.32c-1.94,.28-3.75-1.08-4.02-3.02,0-.04,0-.09,0-.13-3.93,.01-7.78-.57-10.77-1.21l-2.53,6.75c2.7,4.25,7.05,14.31,.84,28.77,1.3,1.23,3.1,1.9,5,1.63l1.93-.27-1.46-10.24,86.24-12.29,1.46,10.24,1.93-.27c3.29-.47,5.61-3.55,5.14-6.84l-5.14-36.05c-17.98-11.72-28.8-32.5-27.34-54.6l-75.68,10.78-1.24,.18Zm89.11,68.41c.28,1.94-1.08,3.75-3.02,4.02l-58.41,8.32c-1.94,.28-3.75-1.08-4.02-3.02-.28-1.94,1.08-3.75,3.02-4.02l58.41-8.32c1.94-.28,3.75,1.08,4.02,3.02Zm-70.52-51.4l22.34-3.18c1.94-.28,3.75,1.08,4.02,3.02,.28,1.94-1.08,3.75-3.02,4.02l-22.34,3.18c-1.94,.28-3.75-1.08-4.02-3.02-.28-1.94,1.08-3.75,3.02-4.02Z"/>
  <path class="cls-6" d="M143.84,149.05l22.34-3.18c1.94-.28,3.3-2.09,3.02-4.02-.28-1.94-2.09-3.3-4.02-3.02l-22.34,3.18c-1.94,.28-3.3,2.09-3.02,4.02,.28,1.94,2.09,3.3,4.02,3.02Z"/>
  <path class="cls-6" d="M207.3,150.88c-.28-1.94-2.09-3.3-4.02-3.02l-58.41,8.32c-.92,.13-1.7,.61-2.24,1.28,4.31,1.16,8.66,2.56,12.3,4.47l49.36-7.03c1.94-.28,3.3-2.09,3.02-4.02Z"/>
  <path class="cls-6" d="M209.32,165.05c-.28-1.94-2.09-3.3-4.02-3.02l-43.06,6.14c.1,.16,.22,.31,.31,.47,1.13,1.99,1.6,4.19,1.44,6.47l42.31-6.03c1.94-.28,3.3-2.09,3.02-4.02Z"/>
  <path class="cls-6" d="M149.9,191.58l58.41-8.32c1.94-.28,3.3-2.09,3.02-4.02h0c-.28-1.94-2.09-3.3-4.02-3.02l-46.45,6.62c-3.54,4.27-9.32,5.58-14.99,5.6,0,.04,0,.09,0,.13,.28,1.94,2.09,3.3,4.02,3.02Z"/>
  <path class="cls-6" d="M209.33,190.39l-58.41,8.32c-1.94,.28-3.3,2.09-3.02,4.02,.28,1.94,2.09,3.3,4.02,3.02l58.41-8.32c1.94-.28,3.3-2.09,3.02-4.02s-2.09-3.3-4.02-3.02Z"/>
  <polygon class="cls-7" points="138.88 213.85 140.34 224.09 140.34 224.09 145.64 223.34 221.28 212.56 226.58 211.8 225.12 201.56 138.88 213.85"/>
  <path class="cls-9" d="M161.51,63.9c.83-.12,1.4-.88,1.28-1.71-.12-.83-.88-1.4-1.71-1.28-.83,.12-1.4,.88-1.28,1.71,.12,.83,.88,1.4,1.71,1.28Z"/>
  <path class="cls-9" d="M150.95,73.32l23.34-3.33c1.57-.22,2.68-1.7,2.45-3.27h0c-.22-1.57-1.7-2.68-3.27-2.45l-23.34,3.33c-1.57,.22-2.68,1.7-2.45,3.27,.22,1.57,1.7,2.68,3.27,2.45Z"/>
  <path class="cls-8" d="M253.75,175.1c-32.74-6.66-53.89-38.6-47.23-71.34,3.68-18.12,15.12-32.68,30.14-40.95-4.6,2.08-8.92,4.72-12.86,7.86-5.66,4.51-10.52,10.05-14.28,16.4-3.37,5.67-5.87,11.99-7.26,18.82-.55,2.72-.9,5.44-1.08,8.14-1.46,22.11,9.36,42.88,27.34,54.6,3.12,2.04,6.46,3.8,9.99,5.25,3.49,1.43,7.15,2.57,10.98,3.35,14.62,2.97,29.08,.39,41.2-6.28-11.18,5.06-23.99,6.78-36.93,4.15Z"/>
  <path class="cls-8" d="M268.86,122.89c-.2,1-.42,1.99-.64,2.96-.23,.97-.44,1.93-.63,2.88l-1.24,6.11c1.33-.08,3.14-.49,5.41-1.25,1.17-.69,1.89-1.65,2.13-2.88,.08-.39,.12-.79,.11-1.2,0-.41-.1-.86-.28-1.37-.83-.98-1.61-1.88-2.33-2.69-.72-.81-1.57-1.67-2.53-2.56Z"/>
  <path class="cls-11" d="M268.86,122.89c-.2,1-.42,1.99-.64,2.96-.23,.97-.44,1.93-.63,2.88l-1.24,6.11c1.33-.08,3.14-.49,5.41-1.25,1.17-.69,1.89-1.65,2.13-2.88,.08-.39,.12-.79,.11-1.2,0-.41-.1-.86-.28-1.37-.83-.98-1.61-1.88-2.33-2.69-.72-.81-1.57-1.67-2.53-2.56Z"/>
  <path class="cls-8" d="M259.53,102.34c-.21,1.3,.04,2.58,.74,3.86,.7,1.28,1.61,2.43,2.73,3.47l2.06-10.13c-.95,.1-1.94,.3-2.96,.62-1.02,.31-1.88,1.04-2.58,2.18Z"/>
  <path class="cls-12" d="M259.53,102.34c-.21,1.3,.04,2.58,.74,3.86,.7,1.28,1.61,2.43,2.73,3.47l2.06-10.13c-.95,.1-1.94,.3-2.96,.62-1.02,.31-1.88,1.04-2.58,2.18Z"/>
  <path class="cls-8" d="M320.82,130c6.66-32.74-14.49-64.68-47.23-71.34-12.94-2.63-25.75-.9-36.93,4.15-15.02,8.27-26.46,22.83-30.14,40.95-6.66,32.74,14.49,64.68,47.23,71.34,12.94,2.63,25.75,.9,36.93-4.15,15.02-8.27,26.46-22.83,30.14-40.95Zm-55,37.74c-3.42,0-6.88-.34-10.36-1.05-28.06-5.7-46.24-33.17-40.54-61.23,5.7-28.06,33.18-46.24,61.23-40.54,28.06,5.7,46.24,33.17,40.54,61.23-5,24.58-26.7,41.58-50.87,41.58Z"/>
  <path class="cls-13" d="M277.86,56.53c-14.62-2.97-29.08-.39-41.2,6.28-15.02,8.27-26.46,22.83-30.14,40.95-6.66,32.74,14.49,64.68,47.23,71.34,12.94,2.63,25.75,.9,36.93-4.15,17.1-7.73,30.38-23.28,34.41-43.08,6.66-32.74-14.49-64.68-47.23-71.34Zm-12.04,111.21c-3.42,0-6.88-.34-10.36-1.05-28.06-5.7-46.24-33.17-40.54-61.23,5.7-28.06,33.18-46.24,61.23-40.54,28.06,5.7,46.24,33.17,40.54,61.23-5,24.58-26.7,41.58-50.87,41.58Z"/>
  <path class="cls-8" d="M274.87,71.21c-3.05-.62-6.09-.92-9.08-.92-21.19,0-40.21,14.91-44.6,36.46-5,24.6,10.94,48.68,35.54,53.68,24.61,5,48.68-10.94,53.68-35.54,5-24.6-10.94-48.68-35.54-53.68Zm10.24,31.72c-.19,.95-.73,1.68-1.62,2.2-.89,.52-1.95,.65-3.17,.4-1.12-.23-2.24-.72-3.36-1.47-1.13-.75-2.12-1.45-2.97-2.09l-.77-.5c-.26,.99-.49,2.05-.69,3.17-.2,1.12-.4,2.16-.59,3.1l-1.44,7.11c1.58,1.02,3.18,2.09,4.81,3.2,1.62,1.12,3.04,2.33,4.24,3.65,1.21,1.32,2.11,2.78,2.71,4.38,.6,1.6,.69,3.41,.28,5.42-.48,2.34-1.32,4.22-2.53,5.63-1.21,1.41-2.63,2.51-4.27,3.31-1.63,.8-3.41,1.34-5.31,1.62-1.91,.28-3.78,.41-5.62,.38-.19,.95-.38,1.88-.57,2.8-.19,.92-.35,1.86-.49,2.82-.51,1.06-1.23,1.77-2.15,2.13-.92,.36-1.81,.46-2.65,.29-1.02-.21-1.76-.58-2.24-1.11-.48-.53-.77-1.17-.89-1.92-.11-.75-.11-1.56,.01-2.44,.12-.88,.27-1.76,.45-2.65,.06-.28,.1-.59,.15-.93,.04-.34,.08-.74,.11-1.2-1.63-.85-2.99-1.65-4.09-2.4-1.1-.75-2.03-1.52-2.8-2.31-.77-.79-1.43-1.63-1.97-2.49-.55-.87-1.1-1.79-1.66-2.78-.43-1.02-.57-1.92-.41-2.7,.19-.95,.71-1.76,1.54-2.43,.83-.67,1.89-.88,3.17-.62,.67,.14,1.31,.5,1.91,1.09s1.23,1.29,1.88,2.12c.6,.76,1.27,1.6,2.02,2.5,.74,.91,1.48,1.55,2.22,1.93,.51-2.51,1.01-4.9,1.5-7.19,.49-2.28,.99-4.68,1.5-7.19l-.54-.37c-1.07-.74-2.25-1.63-3.55-2.68-1.3-1.05-2.49-2.23-3.59-3.56-1.1-1.33-1.95-2.78-2.56-4.35-.61-1.58-.73-3.29-.35-5.13,.31-1.5,.91-2.89,1.8-4.16,.9-1.27,2.03-2.36,3.41-3.27s2.97-1.6,4.78-2.08,3.78-.67,5.91-.59l.53-2.59c.19-.95,.42-1.86,.69-2.73,.26-.88,.62-1.62,1.07-2.22,.45-.6,.98-1.05,1.59-1.33,.61-.28,1.4-.33,2.36-.13,1.8,.37,2.81,1.27,3.02,2.71,.2,1.43,.12,3.07-.25,4.91-.07,.34-.15,.64-.23,.91-.09,.28-.16,.55-.21,.83l-.29,1.42c.8,.34,1.82,.84,3.05,1.49,1.23,.66,2.41,1.43,3.53,2.33,1.12,.9,2.05,1.84,2.78,2.83s1,1.96,.8,2.91Z"/>
  <path class="cls-14" d="M274.87,71.21c-3.05-.62-6.09-.92-9.08-.92-21.19,0-40.21,14.91-44.6,36.46-5,24.6,10.94,48.68,35.54,53.68,24.61,5,48.68-10.94,53.68-35.54,5-24.6-10.94-48.68-35.54-53.68Zm10.24,31.72c-.19,.95-.73,1.68-1.62,2.2-.89,.52-1.95,.65-3.17,.4-1.12-.23-2.24-.72-3.36-1.47-1.13-.75-2.12-1.45-2.97-2.09l-.77-.5c-.26,.99-.49,2.05-.69,3.17-.2,1.12-.4,2.16-.59,3.1l-1.44,7.11c1.58,1.02,3.18,2.09,4.81,3.2,1.62,1.12,3.04,2.33,4.24,3.65,1.21,1.32,2.11,2.78,2.71,4.38,.6,1.6,.69,3.41,.28,5.42-.48,2.34-1.32,4.22-2.53,5.63-1.21,1.41-2.63,2.51-4.27,3.31-1.63,.8-3.41,1.34-5.31,1.62-1.91,.28-3.78,.41-5.62,.38-.19,.95-.38,1.88-.57,2.8-.19,.92-.35,1.86-.49,2.82-.51,1.06-1.23,1.77-2.15,2.13-.92,.36-1.81,.46-2.65,.29-1.02-.21-1.76-.58-2.24-1.11-.48-.53-.77-1.17-.89-1.92-.11-.75-.11-1.56,.01-2.44,.12-.88,.27-1.76,.45-2.65,.06-.28,.1-.59,.15-.93,.04-.34,.08-.74,.11-1.2-1.63-.85-2.99-1.65-4.09-2.4-1.1-.75-2.03-1.52-2.8-2.31-.77-.79-1.43-1.63-1.97-2.49-.55-.87-1.1-1.79-1.66-2.78-.43-1.02-.57-1.92-.41-2.7,.19-.95,.71-1.76,1.54-2.43,.83-.67,1.89-.88,3.17-.62,.67,.14,1.31,.5,1.91,1.09s1.23,1.29,1.88,2.12c.6,.76,1.27,1.6,2.02,2.5,.74,.91,1.48,1.55,2.22,1.93,.51-2.51,1.01-4.9,1.5-7.19,.49-2.28,.99-4.68,1.5-7.19l-.54-.37c-1.07-.74-2.25-1.63-3.55-2.68-1.3-1.05-2.49-2.23-3.59-3.56-1.1-1.33-1.95-2.78-2.56-4.35-.61-1.58-.73-3.29-.35-5.13,.31-1.5,.91-2.89,1.8-4.16,.9-1.27,2.03-2.36,3.41-3.27s2.97-1.6,4.78-2.08,3.78-.67,5.91-.59l.53-2.59c.19-.95,.42-1.86,.69-2.73,.26-.88,.62-1.62,1.07-2.22,.45-.6,.98-1.05,1.59-1.33,.61-.28,1.4-.33,2.36-.13,1.8,.37,2.81,1.27,3.02,2.71,.2,1.43,.12,3.07-.25,4.91-.07,.34-.15,.64-.23,.91-.09,.28-.16,.55-.21,.83l-.29,1.42c.8,.34,1.82,.84,3.05,1.49,1.23,.66,2.41,1.43,3.53,2.33,1.12,.9,2.05,1.84,2.78,2.83s1,1.96,.8,2.91Z"/>
  <path class="cls-7" d="M281.53,97.19c-1.13-.9-2.3-1.67-3.53-2.33-1.23-.66-2.25-1.15-3.05-1.49l.29-1.42c.06-.28,.13-.55,.21-.83,.09-.27,.16-.58,.23-.91,.37-1.84,.45-3.48,.25-4.91-.21-1.44-1.21-2.34-3.02-2.71-.96-.19-1.74-.15-2.36,.13-.62,.28-1.15,.73-1.59,1.33-.45,.61-.8,1.35-1.07,2.22-.27,.88-.5,1.79-.69,2.73l-.53,2.59c-2.13-.08-4.11,.11-5.91,.59s-3.4,1.17-4.78,2.08-2.51,2-3.41,3.27c-.9,1.27-1.5,2.66-1.8,4.16-.38,1.84-.26,3.55,.35,5.13,.61,1.58,1.46,3.03,2.56,4.35,1.09,1.33,2.29,2.51,3.59,3.56,1.3,1.05,2.48,1.94,3.55,2.68l.54,.37c-.51,2.51-1.01,4.91-1.5,7.19-.49,2.28-.99,4.68-1.5,7.19-.74-.38-1.48-1.03-2.22-1.93-.75-.9-1.42-1.74-2.02-2.5-.64-.83-1.27-1.54-1.88-2.12s-1.24-.95-1.91-1.09c-1.28-.26-2.34-.06-3.17,.62-.84,.67-1.35,1.48-1.54,2.43-.16,.78-.02,1.68,.41,2.7,.55,.98,1.11,1.91,1.66,2.78,.55,.87,1.21,1.7,1.97,2.49,.77,.8,1.7,1.57,2.8,2.31,1.1,.75,2.46,1.54,4.09,2.4-.04,.46-.07,.86-.11,1.2-.04,.34-.09,.65-.15,.93-.18,.89-.33,1.78-.45,2.65-.12,.88-.12,1.69-.01,2.44,.11,.75,.41,1.39,.89,1.92,.48,.53,1.23,.9,2.24,1.11,.85,.17,1.73,.08,2.65-.29,.93-.36,1.64-1.08,2.15-2.13,.14-.96,.3-1.9,.49-2.82,.19-.92,.38-1.85,.57-2.8,1.84,.03,3.72-.1,5.62-.38,1.9-.28,3.68-.82,5.31-1.62,1.64-.8,3.06-1.9,4.27-3.31,1.21-1.41,2.06-3.28,2.53-5.63,.41-2.01,.31-3.81-.28-5.42-.6-1.6-1.5-3.06-2.71-4.38-1.2-1.32-2.62-2.54-4.24-3.65-1.62-1.11-3.23-2.18-4.81-3.2l1.44-7.11c.19-.95,.39-1.98,.59-3.1,.2-1.12,.43-2.18,.69-3.17l.77,.5c.86,.64,1.85,1.33,2.97,2.09,1.13,.75,2.24,1.24,3.36,1.47,1.23,.25,2.28,.12,3.17-.4,.89-.52,1.43-1.25,1.62-2.2,.19-.95-.07-1.92-.8-2.91s-1.65-1.93-2.78-2.83Zm-18.53,12.48c-1.12-1.04-2.03-2.2-2.73-3.47-.7-1.28-.95-2.56-.74-3.86,.69-1.13,1.55-1.86,2.58-2.18,1.02-.31,2.01-.52,2.96-.62l-2.06,10.13Zm8.38,15.78c.73,.81,1.5,1.71,2.33,2.69,.19,.5,.28,.96,.28,1.37,0,.41-.04,.81-.11,1.2-.25,1.23-.96,2.19-2.13,2.88-2.28,.76-4.08,1.17-5.41,1.25l1.24-6.11c.19-.95,.4-1.91,.63-2.88,.22-.97,.44-1.96,.64-2.96,.96,.89,1.81,1.75,2.53,2.56Z"/>
  <path class="cls-7" d="M276.15,64.93c-28.05-5.7-55.53,12.48-61.23,40.54-5.7,28.06,12.48,55.53,40.54,61.23,3.48,.71,6.94,1.05,10.36,1.05,24.17,0,45.87-17,50.87-41.58,5.7-28.06-12.48-55.53-40.54-61.23Zm34.26,59.95c-5,24.6-29.07,40.54-53.68,35.54-24.6-5-40.54-29.08-35.54-53.68,4.38-21.55,23.41-36.46,44.6-36.46,2.99,0,6.04,.3,9.08,.92,24.6,5,40.54,29.08,35.54,53.68Z"/>
  <polygon class="cls-1" points="238.62 48.87 242.18 42.36 248.69 38.8 242.18 35.24 238.62 28.73 235.06 35.24 228.56 38.8 235.06 42.36 238.62 48.87"/>
  <polygon class="cls-1" points="253.73 186.52 251.95 189.77 248.69 191.55 251.95 193.33 253.73 196.59 255.51 193.33 258.76 191.55 255.51 189.77 253.73 186.52"/>
  <rect class="cls-3" x="87.16" y="87.4" width="7.93" height="2.5"/>
  <rect class="cls-3" x="87.16" y="83.55" width="7.93" height="2.46"/>
  <path class="cls-3" d="M128.95,105.46c6.65,0,12.1-5.44,12.1-12.1v-24.01c0-6.13-4.63-11.23-10.56-11.99-.51-.07-1.02-.11-1.54-.11H23.46c-6.65,0-12.1,5.44-12.1,12.1v24.01c0,6.65,5.44,12.1,12.1,12.1h105.49Zm-13.48-34.39c1.67,.35,3.02,.8,4.07,1.36l-.86,1c-1.02-.56-2.36-1.04-4.05-1.45l.84-.91Zm-3,0c.14,.97,.48,1.89,1.05,2.77l7.73-.48,.14,1.37-6.84,.41c1.23,1.27,2.58,2.03,4.05,2.27,.3,.04,.58,.07,.84,.07,.38,0,.63-.23,.75-.68,.06-.24,.11-.59,.14-1.04,.33,.26,.78,.46,1.34,.61-.14,1.32-.52,2.13-1.14,2.43-.3,.14-.69,.2-1.16,.2-1.7,0-3.35-.63-4.95-1.89-.71-.55-1.33-1.17-1.84-1.86l-4.7,.29-.16-1.36,4.05-.23c-.44-.92-.73-1.89-.86-2.89h1.59Zm6.57,8.21v9.34h-15.07v-9.34h15.07Zm-64.33-7.27h20v1.43h-6.57v1.8h5.43v5.32h-17.48v-5.32h5.14v-1.8h-6.52v-1.43Zm17.64,10.07v1.39h-15.07v-1.39h15.07Zm-33.52,8.21c0,.89-.25,1.47-.75,1.73-.01,.01-.03,.02-.05,.02-.44,.2-1.45,.3-3.02,.3-.12-.65-.3-1.2-.52-1.64,1.21,.03,1.98,.03,2.32,0,.29-.04,.44-.19,.45-.43v-5.82h-3.39c-.23,3.32-.81,5.96-1.75,7.91-.4-.32-.86-.59-1.41-.82,1.14-2.3,1.71-5.91,1.73-10.82v-8.77h6.39v18.34Zm2.66-15.64v-2.77h7.32v5.77c0,.35,.07,.54,.2,.57,.05,.02,.11,.02,.18,.02h1.09c.2,0,.33-.14,.39-.41,.08-.33,.13-1.06,.16-2.18,.27,.23,.75,.43,1.43,.61-.09,1.76-.36,2.83-.82,3.21-.24,.18-.56,.27-.95,.27h-1.54c-.85,0-1.38-.24-1.59-.7-.14-.3-.2-.76-.2-1.36v-4.18h-4v1.18c-.02,2.73-1,4.74-2.96,6.02-.32-.39-.72-.76-1.2-1.09-.03-.02-.05-.03-.07-.05,1.7-1.12,2.55-2.76,2.57-4.91Zm9.68,17.75c-2.08-.65-3.95-1.66-5.64-3.02-1.64,1.27-3.49,2.26-5.57,2.96-.26-.61-.59-1.11-1-1.5,2.02-.59,3.79-1.46,5.32-2.61-1.38-1.45-2.49-3.15-3.34-5.09l1.39-.43h-2.29v-1.62h9.36l.3-.07,1.14,.48c-.79,2.62-2.12,4.86-4,6.73,1.59,1.21,3.42,2.11,5.5,2.68-.43,.36-.81,.86-1.16,1.5Zm4.82-.66c-.15,.08-.3,.15-.43,.23-.41-.44-.84-.82-1.3-1.14,2.14-.97,3.8-2.13,5-3.48,.09-.1,.17-.2,.25-.29l1.57,.57c-1.2,1.5-2.89,2.87-5.09,4.11Zm17.71,.02c-1.2-1.06-3.05-2.3-5.55-3.73l1.25-.91c2.17,1.15,3.97,2.3,5.41,3.46,.09,.06,.17,.12,.23,.18l-1.34,1Zm1.48-5.27h-9.5v4.02c0,.74-.19,1.23-.57,1.45-.11,.05-.21,.09-.32,.14-.52,.18-1.67,.27-3.46,.27-.08-.48-.26-1.01-.55-1.57,1.33,.05,2.25,.05,2.75,.02,.26-.08,.39-.2,.41-.36v-3.98h-9.5v-1.43h20.73v1.43Zm6.68,5.8h-1.64v-13.07c-.74,1.05-1.53,2-2.36,2.86-.36-.77-.69-1.33-.98-1.66,1.97-1.92,3.64-4.39,5-7.41,.27-.62,.52-1.23,.75-1.84l1.61,.5c-.67,1.76-1.46,3.43-2.39,5.02v15.59Zm14.96,.02h-1.7v-.93h-7.93v1.02h-1.66v-10.32h11.3v10.23Zm2.07-12.09h-15.82v-1.57h4.07v-3.16h-3.09v-1.5h3.09v-2.68h1.66v2.68h4.32v-2.68h1.68v2.68h3.23v1.5h-3.23v3.16h4.09v1.57Zm7.84-8.52c.24-.24,.46-.48,.66-.7l1.57,.57c-.62,.74-1.37,1.49-2.25,2.23v4.86h-1.64v-3.59c-.93,.65-2,1.3-3.23,1.93-.39-.48-.82-.89-1.27-1.23,2.49-1.09,4.54-2.45,6.16-4.07Zm-4.41,20.71c-.65-.7-1.08-1.13-1.29-1.29,3-.64,5.27-1.39,6.82-2.25l1.57,.75c-1.85,1.06-4.21,1.99-7.09,2.79Zm17.46-.02c-1.47-.76-3.64-1.61-6.5-2.57l1.41-.89c3.01,.97,5.35,1.83,7,2.59l-1.91,.86Z"/>
  <rect class="cls-3" x="34" y="73.53" width="3.25" height="3.77"/>
  <path class="cls-3" d="M37.25,78.92h-3.25v1.32c0,1.11-.02,1.96-.05,2.57h3.3v-3.89Z"/>
  <path class="cls-3" d="M42.55,82.69c.71,1.65,1.71,3.11,3,4.39,1.35-1.3,2.36-2.76,3.02-4.39h-6.02Z"/>
  <rect class="cls-3" x="57.71" y="76.55" width="3.52" height="2.66"/>
  <rect class="cls-3" x="68.14" y="76.55" width="3.73" height="2.66"/>
  <rect class="cls-3" x="62.85" y="73.44" width="3.66" height="1.8"/>
  <rect class="cls-3" x="88.78" y="75.49" width="4.32" height="3.16"/>
  <rect class="cls-3" x="62.85" y="76.55" width="3.66" height="2.66"/>
  <rect class="cls-3" x="105.65" y="80.46" width="11.66" height="1.55"/>
  <rect class="cls-3" x="105.65" y="83.12" width="11.66" height="1.61"/>
  <rect class="cls-3" x="105.65" y="85.85" width="11.66" height="1.64"/>
  <path class="cls-3" d="M88.16,27.85c.71,1.65,1.71,3.11,3,4.39,1.35-1.3,2.36-2.76,3.02-4.39h-6.02Z"/>
  <rect class="cls-3" x="108.46" y="21.72" width="3.66" height="2.66"/>
  <rect class="cls-3" x="108.46" y="18.6" width="3.66" height="1.8"/>
  <rect class="cls-3" x="64.57" y="20.65" width="4.32" height="3.16"/>
  <rect class="cls-3" x="103.32" y="21.72" width="3.52" height="2.66"/>
  <rect class="cls-3" x="113.76" y="21.72" width="3.73" height="2.66"/>
  <path class="cls-3" d="M23.46,51.19h105.49c6.65,0,12.1-5.44,12.1-12.1V15.08c0-6.65-5.44-12.1-12.1-12.1H23.46c-6.65,0-12.1,5.44-12.1,12.1v24.01c0,6.65,5.44,12.1,12.1,12.1Zm49.13-13.72h-1.7v-.93h-7.93v1.02h-1.66v-10.32h11.3v10.23Zm46.71-.55c-1.2-1.06-3.05-2.3-5.55-3.73l1.25-.91c2.17,1.15,3.97,2.3,5.41,3.46,.09,.06,.17,.12,.23,.18l-1.34,1Zm-18.98-19.75h20v1.43h-6.57v1.8h5.43v5.32h-17.48v-5.32h5.14v-1.8h-6.52v-1.43Zm17.64,10.07v1.39h-15.07v-1.39h15.07Zm-17.91,2.98h20.73v1.43h-9.5v4.02c0,.74-.19,1.23-.57,1.45-.11,.05-.21,.09-.32,.14-.52,.18-1.67,.27-3.46,.27-.08-.48-.26-1.01-.55-1.57,1.33,.05,2.25,.05,2.75,.02,.26-.08,.39-.2,.41-.36v-3.98h-9.5v-1.43Zm4.82,2.29c.09-.1,.17-.2,.25-.29l1.57,.57c-1.2,1.5-2.89,2.87-5.09,4.11-.15,.08-.3,.15-.43,.23-.41-.44-.84-.82-1.3-1.14,2.14-.97,3.8-2.13,5-3.48Zm-8.1,5.05c-2.08-.65-3.95-1.66-5.64-3.02-1.64,1.27-3.49,2.26-5.57,2.96-.26-.61-.59-1.11-1-1.5,2.02-.59,3.79-1.46,5.32-2.61-1.38-1.45-2.49-3.15-3.34-5.09l1.39-.43h-2.29v-1.62h9.36l.3-.07,1.14,.48c-.79,2.62-2.12,4.86-4,6.73,1.59,1.21,3.42,2.11,5.5,2.68-.43,.36-.81,.86-1.16,1.5Zm-9.68-17.75v-2.77h7.32v5.77c0,.35,.07,.54,.2,.57,.05,.02,.11,.02,.18,.02h1.09c.2,0,.33-.14,.39-.41,.08-.33,.13-1.06,.16-2.18,.27,.23,.75,.43,1.43,.61-.09,1.76-.36,2.83-.82,3.21-.24,.18-.56,.27-.95,.27h-1.54c-.85,0-1.38-.24-1.59-.7-.14-.3-.2-.76-.2-1.36v-4.18h-4v1.18c-.02,2.73-1,4.74-2.96,6.02-.32-.39-.72-.76-1.2-1.09-.03-.02-.05-.03-.07-.05,1.7-1.12,2.55-2.76,2.57-4.91Zm-9.05,6.07v-8.77h6.39v18.34c0,.89-.25,1.47-.75,1.73-.01,.01-.03,.02-.05,.02-.44,.2-1.45,.3-3.02,.3-.12-.65-.3-1.2-.52-1.64,1.21,.03,1.98,.03,2.32,0,.29-.04,.44-.19,.45-.43v-5.82h-3.39c-.23,3.32-.81,5.96-1.75,7.91-.4-.32-.86-.59-1.41-.82,1.14-2.3,1.71-5.91,1.73-10.82Zm-15.14-9.41h1.66v2.68h4.32v-2.68h1.68v2.68h3.23v1.5h-3.23v3.16h4.09v1.57h-15.82v-1.57h4.07v-3.16h-3.09v-1.5h3.09v-2.68Zm-5.25,1.7c.27-.62,.52-1.23,.75-1.84l1.61,.5c-.67,1.76-1.46,3.43-2.39,5.02v15.59h-1.64v-13.07c-.74,1.05-1.53,2-2.36,2.86-.36-.77-.69-1.33-.98-1.66,1.97-1.92,3.64-4.39,5-7.41Zm-26.02,9.73h1.73v6.45h6.2v-7.96h-7.05v-7.96h1.7v6.3h5.34v-8.37h1.77v8.37h5.59v-6.3h1.77v7.96h-7.37v7.96h6.55v-6.45h1.75v9.55h-1.75v-1.41h-14.52v1.45h-1.73v-9.59Z"/>
  <rect class="cls-3" x="62.95" y="28.72" width="7.93" height="2.46"/>
  <rect class="cls-3" x="62.95" y="32.56" width="7.93" height="2.5"/>
  <path class="cls-3" d="M82.86,24.08h-3.25v1.32c0,1.11-.02,1.96-.05,2.57h3.3v-3.89Z"/>
  <rect class="cls-3" x="79.62" y="18.69" width="3.25" height="3.77"/>
  <polygon class="cls-8" points="33.36 36.04 47.89 36.04 47.89 37.45 49.64 37.45 49.64 27.9 47.89 27.9 47.89 34.36 41.34 34.36 41.34 26.4 48.7 26.4 48.7 18.44 46.93 18.44 46.93 24.74 41.34 24.74 41.34 16.37 39.57 16.37 39.57 24.74 34.23 24.74 34.23 18.44 32.52 18.44 32.52 26.4 39.57 26.4 39.57 34.36 33.36 34.36 33.36 27.9 31.64 27.9 31.64 37.49 33.36 37.49 33.36 36.04"/>
  <path class="cls-8" d="M61.3,37.56h1.66v-1.02h7.93v.93h1.7v-10.23h-11.3v10.32Zm1.66-8.84h7.93v2.46h-7.93v-2.46Zm0,3.84h7.93v2.5h-7.93v-2.5Z"/>
  <path class="cls-8" d="M59.82,20.65h3.09v3.16h-4.07v1.57h15.82v-1.57h-4.09v-3.16h3.23v-1.5h-3.23v-2.68h-1.68v2.68h-4.32v-2.68h-1.66v2.68h-3.09v1.5Zm4.75,0h4.32v3.16h-4.32v-3.16Z"/>
  <path class="cls-8" d="M56,24.38v13.07h1.64v-15.59c.93-1.59,1.72-3.27,2.39-5.02l-1.61-.5c-.23,.61-.48,1.22-.75,1.84-1.36,3.02-3.03,5.49-5,7.41,.29,.33,.61,.89,.98,1.66,.83-.86,1.62-1.82,2.36-2.86Z"/>
  <path class="cls-8" d="M85.8,25.85c1.95-1.29,2.94-3.3,2.96-6.02v-1.18h4v4.18c0,.6,.07,1.06,.2,1.36,.21,.47,.74,.7,1.59,.7h1.54c.39,0,.71-.09,.95-.27,.45-.38,.73-1.45,.82-3.21-.68-.18-1.16-.39-1.43-.61-.03,1.12-.08,1.85-.16,2.18-.06,.27-.19,.41-.39,.41h-1.09c-.08,0-.14,0-.18-.02-.14-.03-.2-.22-.2-.57v-5.77h-7.32v2.77c-.02,2.15-.87,3.79-2.57,4.91,.02,.01,.04,.03,.07,.05,.49,.33,.89,.7,1.2,1.09Z"/>
  <path class="cls-8" d="M79.48,29.6h3.39v5.82c-.01,.24-.17,.39-.45,.43-.33,.03-1.11,.03-2.32,0,.23,.44,.4,.99,.52,1.64,1.58,0,2.58-.1,3.02-.3,.01,0,.03,0,.05-.02,.5-.26,.75-.83,.75-1.73V17.1h-6.39v8.77c-.01,4.91-.59,8.52-1.73,10.82,.54,.23,1.01,.5,1.41,.82,.94-1.95,1.52-4.59,1.75-7.91Zm.14-10.91h3.25v3.77h-3.25v-3.77Zm0,6.7v-1.32h3.25v3.89h-3.3c.03-.6,.05-1.46,.05-2.57Z"/>
  <path class="cls-8" d="M96.43,26.65l-1.14-.48-.3,.07h-9.36v1.62h2.29l-1.39,.43c.85,1.94,1.96,3.64,3.34,5.09-1.53,1.15-3.3,2.02-5.32,2.61,.41,.39,.74,.89,1,1.5,2.08-.7,3.93-1.68,5.57-2.96,1.68,1.36,3.56,2.37,5.64,3.02,.35-.64,.74-1.14,1.16-1.5-2.08-.58-3.91-1.47-5.5-2.68,1.88-1.87,3.21-4.11,4-6.73Zm-8.27,1.2h6.02c-.67,1.62-1.67,3.08-3.02,4.39-1.29-1.27-2.29-2.73-3-4.39Z"/>
  <path class="cls-8" d="M101.6,36.9c2.2-1.24,3.9-2.61,5.09-4.11l-1.57-.57c-.08,.09-.16,.19-.25,.29-1.2,1.35-2.87,2.51-5,3.48,.45,.32,.89,.7,1.3,1.14,.14-.08,.28-.15,.43-.23Z"/>
  <path class="cls-8" d="M115.01,32.29l-1.25,.91c2.5,1.43,4.35,2.67,5.55,3.73l1.34-1c-.06-.06-.14-.12-.23-.18-1.44-1.15-3.24-2.3-5.41-3.46Z"/>
  <path class="cls-8" d="M106.85,20.4h-5.14v5.32h17.48v-5.32h-5.43v-1.8h6.57v-1.43h-20v1.43h6.52v1.8Zm0,3.98h-3.52v-2.66h3.52v2.66Zm6.91-2.66h3.73v2.66h-3.73v-2.66Zm-5.3-3.11h3.66v1.8h-3.66v-1.8Zm0,3.11h3.66v2.66h-3.66v-2.66Z"/>
  <path class="cls-8" d="M109.55,35.63c-.01,.17-.15,.29-.41,.36-.5,.03-1.42,.02-2.75-.02,.29,.56,.47,1.08,.55,1.57,1.79,0,2.94-.09,3.46-.27,.1-.05,.21-.09,.32-.14,.38-.23,.57-.71,.57-1.45v-4.02h9.5v-1.43h-20.73v1.43h9.5v3.98Z"/>
  <rect class="cls-8" x="102.89" y="27.24" width="15.07" height="1.39"/>
  <path class="cls-8" d="M40.18,80.69c1.95-1.29,2.94-3.3,2.96-6.02v-1.18h4v4.18c0,.6,.07,1.06,.2,1.36,.21,.47,.74,.7,1.59,.7h1.54c.39,0,.71-.09,.95-.27,.45-.38,.73-1.45,.82-3.21-.68-.18-1.16-.39-1.43-.61-.03,1.12-.08,1.85-.16,2.18-.06,.27-.19,.41-.39,.41h-1.09c-.08,0-.14,0-.18-.02-.14-.03-.2-.22-.2-.57v-5.77h-7.32v2.77c-.02,2.15-.87,3.79-2.57,4.91,.02,.01,.04,.03,.07,.05,.49,.33,.89,.7,1.2,1.09Z"/>
  <path class="cls-8" d="M32.43,80.24v.48c-.01,4.91-.59,8.52-1.73,10.82,.54,.23,1.01,.5,1.41,.82,.94-1.95,1.52-4.59,1.75-7.91h3.39v5.82c-.01,.24-.17,.39-.45,.43-.33,.03-1.11,.03-2.32,0,.23,.44,.4,.99,.52,1.64,1.58,0,2.58-.1,3.02-.3,.01,0,.03,0,.05-.02,.5-.26,.75-.83,.75-1.73v-18.34h-6.39v8.3Zm1.57-6.7h3.25v3.77h-3.25v-3.77Zm0,6.7v-1.32h3.25v3.89h-3.3c.03-.6,.05-1.46,.05-2.57Z"/>
  <path class="cls-8" d="M50.82,81.49l-1.14-.48-.3,.07h-9.36v1.62h2.29l-1.39,.43c.85,1.94,1.96,3.64,3.34,5.09-1.53,1.15-3.3,2.02-5.32,2.61,.41,.39,.74,.89,1,1.5,2.08-.7,3.93-1.68,5.57-2.96,1.68,1.36,3.56,2.37,5.64,3.02,.35-.64,.74-1.14,1.16-1.5-2.08-.58-3.91-1.47-5.5-2.68,1.88-1.87,3.21-4.11,4-6.73Zm-8.27,1.2h6.02c-.67,1.62-1.67,3.08-3.02,4.39-1.29-1.27-2.29-2.73-3-4.39Z"/>
  <path class="cls-8" d="M59.51,87.06c-.08,.09-.16,.19-.25,.29-1.2,1.35-2.87,2.51-5,3.48,.45,.32,.89,.7,1.3,1.14,.14-.08,.28-.15,.43-.23,2.2-1.24,3.9-2.61,5.09-4.11l-1.57-.57Z"/>
  <path class="cls-8" d="M61.23,75.24h-5.14v5.32h17.48v-5.32h-5.43v-1.8h6.57v-1.43h-20v1.43h6.52v1.8Zm0,3.98h-3.52v-2.66h3.52v2.66Zm6.91-2.66h3.73v2.66h-3.73v-2.66Zm-5.3-3.11h3.66v1.8h-3.66v-1.8Zm0,3.11h3.66v2.66h-3.66v-2.66Z"/>
  <path class="cls-8" d="M69.39,87.12l-1.25,.91c2.5,1.43,4.35,2.67,5.55,3.73l1.34-1c-.06-.06-.14-.12-.23-.18-1.44-1.15-3.24-2.3-5.41-3.46Z"/>
  <path class="cls-8" d="M54.44,86.49h9.5v3.98c-.01,.17-.15,.29-.41,.36-.5,.03-1.42,.02-2.75-.02,.29,.56,.47,1.08,.55,1.57,1.79,0,2.94-.09,3.46-.27,.1-.05,.21-.09,.32-.14,.38-.23,.57-.71,.57-1.45v-4.02h9.5v-1.43h-20.73v1.43Z"/>
  <rect class="cls-8" x="57.28" y="82.08" width="15.07" height="1.39"/>
  <path class="cls-8" d="M85.51,92.4h1.66v-1.02h7.93v.93h1.7v-10.23h-11.3v10.32Zm1.66-8.84h7.93v2.46h-7.93v-2.46Zm0,3.84h7.93v2.5h-7.93v-2.5Z"/>
  <path class="cls-8" d="M82.62,71.17c-.23,.61-.48,1.22-.75,1.84-1.36,3.02-3.03,5.49-5,7.41,.29,.33,.61,.89,.98,1.66,.83-.86,1.62-1.82,2.36-2.86v13.07h1.64v-15.59c.93-1.59,1.72-3.27,2.39-5.02l-1.61-.5Z"/>
  <path class="cls-8" d="M94.78,75.49h3.23v-1.5h-3.23v-2.68h-1.68v2.68h-4.32v-2.68h-1.66v2.68h-3.09v1.5h3.09v3.16h-4.07v1.57h15.82v-1.57h-4.09v-3.16Zm-1.68,3.16h-4.32v-3.16h4.32v3.16Z"/>
  <path class="cls-8" d="M105.06,75.05v3.59h1.64v-4.86c.88-.74,1.63-1.49,2.25-2.23l-1.57-.57c-.2,.23-.42,.46-.66,.7-1.62,1.62-3.67,2.98-6.16,4.07,.46,.33,.88,.74,1.27,1.23,1.23-.64,2.3-1.28,3.23-1.93Z"/>
  <path class="cls-8" d="M103.96,88.62h15.07v-9.34h-15.07v9.34Zm1.68-8.16h11.66v1.55h-11.66v-1.55Zm0,2.66h11.66v1.61h-11.66v-1.61Zm0,2.73h11.66v1.64h-11.66v-1.64Z"/>
  <path class="cls-8" d="M119.53,72.44c-1.04-.56-2.4-1.02-4.07-1.36l-.84,.91c1.68,.41,3.03,.89,4.05,1.45l.86-1Z"/>
  <path class="cls-8" d="M107.69,74.19l.16,1.36,4.7-.29c.52,.7,1.13,1.32,1.84,1.86,1.6,1.26,3.26,1.89,4.95,1.89,.47,0,.86-.07,1.16-.2,.62-.3,1-1.11,1.14-2.43-.56-.15-1.01-.36-1.34-.61-.03,.45-.08,.8-.14,1.04-.12,.45-.37,.68-.75,.68-.26,0-.54-.02-.84-.07-1.47-.24-2.82-1-4.05-2.27l6.84-.41-.14-1.37-7.73,.48c-.56-.88-.91-1.8-1.05-2.77h-1.59c.14,1,.43,1.96,.86,2.89l-4.05,.23Z"/>
  <path class="cls-8" d="M101.01,91.1c.21,.17,.64,.6,1.29,1.29,2.88-.8,5.24-1.73,7.09-2.79l-1.57-.75c-1.54,.86-3.82,1.61-6.82,2.25Z"/>
  <path class="cls-8" d="M113.26,89.81c2.86,.95,5.03,1.81,6.5,2.57l1.91-.86c-1.65-.76-3.99-1.62-7-2.59l-1.41,.89Z"/>
</svg>