<?xml version="1.0" encoding="utf-8"?>
<!-- Generator: Adobe Illustrator 27.0.0, SVG Export Plug-In . SVG Version: 6.00 Build 0)  -->
<svg version="1.1" id="_圖層_1" xmlns="http://www.w3.org/2000/svg" xmlns:xlink="http://www.w3.org/1999/xlink" x="0px" y="0px"
	 viewBox="0 0 196.9 36.1" style="enable-background:new 0 0 196.9 36.1;" xml:space="preserve">
<style type="text/css">
	.st0{fill:#FFFFFF;}
	.st1{fill:url(#SVGID_1_);}
	.st2{fill:url(#SVGID_00000008134894333833657650000000881843481054444979_);}
	.st3{fill:url(#SVGID_00000160159824212179785430000008743497100151193266_);}
	.st4{fill:url(#SVGID_00000117667773183805462830000007698256530470437266_);}
</style>
<g>
	<g>
		<g>
			<g>
				<path class="st0" d="M2.1,18.2C2.1,9.2,9.3,2,18.2,2s16.1,7.2,16.1,16.1s-7.2,16.1-16.1,16.1S2.1,27.1,2.1,18.2z"/>
			</g>
			
				<linearGradient id="SVGID_1_" gradientUnits="userSpaceOnUse" x1="-13617.1533" y1="-28040.875" x2="-13794.041" y2="-28457.5957" gradientTransform="matrix(-6.050000e-02 0 0 -6.050000e-02 -802.6919 -1692.3766)">
				<stop  offset="0" style="stop-color:#FFFFFF"/>
				<stop  offset="2.931193e-02" style="stop-color:#F9F6EE"/>
				<stop  offset="0.1641" style="stop-color:#DDCDA6"/>
				<stop  offset="0.285" style="stop-color:#C6AD6C"/>
				<stop  offset="0.3878" style="stop-color:#B69643"/>
				<stop  offset="0.4684" style="stop-color:#AD8829"/>
				<stop  offset="0.5169" style="stop-color:#A98320"/>
				<stop  offset="0.7465" style="stop-color:#8E6A28"/>
				<stop  offset="1" style="stop-color:#745230"/>
			</linearGradient>
			<path class="st1" d="M30.5,25.7c0,0.2,0.1,0.5,0.1,0.7c0,2.5-1.6,4.7-4,6.2c5.1-2.9,8.5-8.4,8.5-14.6c0-3-1.7-5.6-4.5-7.7
				c-3.1-2.2-7.4-3.6-12.3-3.6V18C24.7,18,29.9,21.4,30.5,25.7z"/>
			
				<linearGradient id="SVGID_00000093170314752034949810000015136381810726153135_" gradientUnits="userSpaceOnUse" x1="-13361.5166" y1="-28133.498" x2="-13797.9482" y2="-28133.498" gradientTransform="matrix(-6.050000e-02 0 0 -6.050000e-02 -802.6919 -1692.3766)">
				<stop  offset="0" style="stop-color:#FFFFFF"/>
				<stop  offset="0.1488" style="stop-color:#E5D9BB"/>
				<stop  offset="0.3996" style="stop-color:#BA9C4C"/>
				<stop  offset="0.5112" style="stop-color:#A98320"/>
				<stop  offset="0.6407" style="stop-color:#A57F21"/>
				<stop  offset="0.7811" style="stop-color:#987325"/>
				<stop  offset="0.9261" style="stop-color:#825F2C"/>
				<stop  offset="1" style="stop-color:#745230"/>
			</linearGradient>
			<path style="fill:url(#SVGID_00000093170314752034949810000015136381810726153135_);" d="M6,10.4c3.1-2.2,7.4-3.6,12.3-3.6
				c4.8,0,9.2,1.4,12.3,3.6c2.8,2,4.5,4.7,4.5,7.7c0-6.3-3.4-11.7-8.5-14.6c-2.3-1.3-5-2.1-7.8-2.2l0,0c-0.1,0-0.3,0-0.4,0l0,0l0,0
				c-0.1,0-0.3,0-0.4,0l0,0c-3,0-5.6,0.8-8,2.1C7.6,4.9,6,7.1,6,9.6C6,9.9,6,10.1,6,10.4z"/>
			
				<linearGradient id="SVGID_00000001650181735632176470000003550255254813407627_" gradientUnits="userSpaceOnUse" x1="13436.2656" y1="29212.9941" x2="12999.8193" y2="29212.9941" gradientTransform="matrix(6.050000e-02 0 0 6.050000e-02 -781.9213 -1740.9862)">
				<stop  offset="0" style="stop-color:#FFFFFF"/>
				<stop  offset="0.1488" style="stop-color:#E5D9BB"/>
				<stop  offset="0.3996" style="stop-color:#BA9C4C"/>
				<stop  offset="0.5112" style="stop-color:#A98320"/>
				<stop  offset="0.6407" style="stop-color:#A57F21"/>
				<stop  offset="0.7811" style="stop-color:#987325"/>
				<stop  offset="0.9261" style="stop-color:#825F2C"/>
				<stop  offset="1" style="stop-color:#745230"/>
			</linearGradient>
			<path style="fill:url(#SVGID_00000001650181735632176470000003550255254813407627_);" d="M30.6,25.7c-3.1,2.2-7.4,3.6-12.3,3.6
				c-4.8,0-9.2-1.4-12.3-3.6c-2.8-2-4.5-4.7-4.5-7.7c0,6.3,3.4,11.7,8.5,14.6c2.3,1.3,5,2.1,7.8,2.2l0,0c0.1,0,0.3,0,0.4,0l0,0l0,0
				c0.1,0,0.3,0,0.4,0l0,0c2.8-0.1,5.5-0.9,7.8-2.2c2.5-1.5,4-3.8,4-6.2C30.6,26.2,30.6,25.9,30.6,25.7z"/>
			
				<linearGradient id="SVGID_00000014595129184220014030000012525788759539151762_" gradientUnits="userSpaceOnUse" x1="13179.7842" y1="29303.8223" x2="13002.915" y2="28887.1445" gradientTransform="matrix(6.050000e-02 0 0 6.050000e-02 -781.9213 -1740.9862)">
				<stop  offset="0" style="stop-color:#FFFFFF"/>
				<stop  offset="2.931193e-02" style="stop-color:#F9F6EE"/>
				<stop  offset="0.1641" style="stop-color:#DDCDA6"/>
				<stop  offset="0.285" style="stop-color:#C6AD6C"/>
				<stop  offset="0.3878" style="stop-color:#B69643"/>
				<stop  offset="0.4684" style="stop-color:#AD8829"/>
				<stop  offset="0.5169" style="stop-color:#A98320"/>
				<stop  offset="0.7465" style="stop-color:#8E6A28"/>
				<stop  offset="1" style="stop-color:#745230"/>
			</linearGradient>
			<path style="fill:url(#SVGID_00000014595129184220014030000012525788759539151762_);" d="M6,10.4c0-0.3,0-0.5,0-0.8
				c0-2.5,1.6-4.7,4-6.2C4.9,6.3,1.5,11.7,1.5,18c0,3,1.7,5.7,4.5,7.7c3.1,2.2,7.4,3.6,12.3,3.6V18C11.9,18,6.6,14.7,6,10.4z"/>
		</g>
	</g>
</g>
<g>
	<g>
		<g>
			<path class="st0" d="M172.2,19.5l1.4-0.1c0.4,0.1,0.7,0.4,0.8,0.7l0.1,0.1l0.8-0.8l-0.1-0.1c-0.7-0.5-1.4-1-2.5-1.4h1.5v-4.4
				h-4.9v-0.8h6v-1.1h-6v-1.1H168v1.2h-6v1.1h6v0.8h-4.8v4.5h4.8v0.7c-2.2,0-4.1,0.1-5.7,0.1h-0.1l0.1,1.1h0.1
				c2.7-0.1,5.6-0.1,8.6-0.1v0.8h-9.4v1.1h3.1l-0.7,0.7l0.1,0.1c0,0,0.1,0,0.1,0.1c1.1,0.7,2,1.4,2.6,2l0.1,0.1l1-0.8l-0.1-0.1
				l-0.1-0.1c-0.5-0.5-1.4-1.2-2.3-1.8h5.6v2c0,0.1,0,0.1-0.3,0.1c-0.4,0-1.1,0-2,0h-0.1l0.1,0.1c0.1,0.4,0.4,0.7,0.4,1v0.1h0.1
				c1.4,0,2.2-0.1,2.6-0.1c0.1,0,0.1-0.1,0.3-0.1c0.4-0.1,0.4-0.5,0.4-1.1v-2.2h3.8v-1.4h-3.8v-1.1h-0.3V19.5z M168,16.1v0.8h-3.5
				v-0.8H168z M168,14.3v0.8h-3.5v-0.8H168z M169.3,15.1v-0.8h3.7v0.8H169.3z M169.3,16.9v-0.8h3.7v0.8H169.3z M169.3,17.8h1.9
				l-0.4,0.4l0.1,0.1c0.1,0.1,0.5,0.1,0.8,0.4l-2.6,0.1L169.3,17.8L169.3,17.8z"/>
		</g>
		<g>
			<path class="st0" d="M192.6,17.8h-4.4V22h4.4V17.8z M189.3,21v-2.2h2V21H189.3z"/>
			<polygon class="st0" points="181.8,23 181.8,12.3 193.8,12.3 193.8,11.1 180.5,11.1 180.5,24.9 181.8,24.9 181.8,24.2 
				194.1,24.2 194.1,23 			"/>
			<path class="st0" d="M190.7,13.1h-6v3.5h6V13.1z M185.9,15.9v-1.6h3.4v1.6H185.9z"/>
			<path class="st0" d="M182.9,22h4.2v-4.2h-4.2V22z M186,18.7v2.2h-1.9v-2.2H186z"/>
		</g>
		<path class="st0" d="M129.7,10.8h1.4V18c0,2-0.4,3.5-1.1,4.7c-0.4,0.6-0.9,1.2-1.5,1.5c-0.6,0.4-1.5,0.8-2.7,1l-0.9-1.3
			c0.9-0.1,1.7-0.3,2.5-0.6c1.4-0.8,2.2-2.4,2.3-4.7c-1.1,0.9-2.4,1.7-3.9,2.6l-0.8-1.3c1.9-1.1,3.5-2,4.6-2.9
			C129.7,16.9,129.7,10.8,129.7,10.8z M126.5,12c0.9,0.9,1.7,2.2,2.5,3.5l-1.2,0.8c-1-1.5-1.7-2.7-2.5-3.5L126.5,12z M134.3,10.8V23
			c0,0.2,0.1,0.4,0.2,0.5c0.2,0.1,0.3,0.2,0.5,0.2h2.3c0.1,0,0.2,0,0.4-0.1c0.1,0,0.2-0.8,0.2-1.9l1.3,0.2c-0.1,1.7-0.2,2.6-0.4,2.7
			c-0.3,0.3-0.6,0.5-1,0.5h-3.7c-0.3,0-0.6-0.2-1-0.4c-0.2-0.3-0.4-0.5-0.4-0.9V10.9L134.3,10.8L134.3,10.8L134.3,10.8z M139,12.4
			c-0.8,1.2-1.8,2.4-3.1,3.7l-1-0.9c1.4-1.4,2.5-2.6,3.1-3.7L139,12.4z M135.7,16.8c1.1,0.6,2.4,1.6,3.7,2.9l-0.9,1.1
			c-1.4-1.3-2.6-2.3-3.7-2.9L135.7,16.8z"/>
		<path class="st0" d="M147,23h-2.2c-0.1,0-0.1-0.1-0.1-0.2v-2.5c0-0.1,0-0.1,0.1-0.1h11.5c0.1,0,0.2,0,0.2,0.1v2.5
			c0,0.1-0.1,0.2-0.2,0.2h-2l-0.4,1.1h3.9v1.2h-14.4v-1.2h4.1L147,23z M157.6,18.6v1.1h-14.1v-1.1H157.6z M151.7,16.1v-1h1.4v-0.9
			h-1.4v-1h1.4v-0.8h-1.5v-1h1.5v-0.9h1.1v0.9h1.4v1h-1.4v0.8h1.3v1h-1.3V15h1.4v1h-1.4v0.8h1.7c0.1,0,0.2-0.1,0.2-0.2V11h1.3v6.5
			c0,0.3-0.2,0.5-0.5,0.5h-12.6c-0.3,0-0.5-0.2-0.5-0.5V11h1.2v5.7c0,0.1,0.1,0.2,0.2,0.2h1.7v-0.8h-1.4v-1h1.4v-0.9h-1.3v-1h1.3
			v-0.8h-1.4v-1h1.4v-0.9h1.1v0.9h1.2v1H148v0.8h1.2v1H148v0.9h1.3v1H148v0.8h1.9v-6.1h1.2v6.1h2v-0.8
			C153.1,16.1,151.7,16.1,151.7,16.1z M145.9,21.1L145.9,21.1v0.6v0.1h9.2l0.1-0.1v-0.6h-0.1H145.9z M152.6,23.9L153,23l0.1-0.2
			h-4.7l0.4,1.1H152.6z"/>
	</g>
</g>
<g>
	<path class="st0" d="M46.9,10.9h1.4v7.2c0,2-0.4,3.5-1.1,4.7c-0.4,0.6-0.9,1.2-1.5,1.5c-0.6,0.4-1.5,0.8-2.7,1L42.2,24
		c0.9-0.1,1.7-0.3,2.5-0.6c1.4-0.8,2.2-2.4,2.3-4.7c-1.1,0.9-2.4,1.7-3.9,2.6L42.3,20c1.9-1.1,3.5-2,4.6-2.9
		C46.9,17.1,46.9,10.9,46.9,10.9z M43.7,12.1c0.9,0.9,1.7,2.2,2.5,3.5L45,16.4c-1-1.5-1.7-2.7-2.5-3.5L43.7,12.1z M51.6,10.9v12.2
		c0,0.2,0.1,0.4,0.2,0.5c0.2,0.1,0.3,0.2,0.5,0.2h2.3c0.1,0,0.2,0,0.4-0.1c0.1,0,0.2-0.8,0.2-1.9l1.3,0.2c-0.1,1.7-0.2,2.6-0.4,2.7
		c-0.3,0.3-0.6,0.5-1,0.5h-3.7c-0.3,0-0.6-0.2-1-0.4c-0.2-0.3-0.4-0.5-0.4-0.9V11h1.5v-0.1H51.6z M56.2,12.5
		c-0.8,1.2-1.8,2.4-3.1,3.7l-1-0.9c1.4-1.4,2.5-2.6,3.1-3.7L56.2,12.5z M53,16.9c1.1,0.6,2.4,1.6,3.7,2.9l-0.9,1.1
		c-1.4-1.3-2.6-2.3-3.7-2.9L53,16.9z"/>
	<path class="st0" d="M64.9,23.1h-2.2c-0.1,0-0.1-0.1-0.1-0.2v-2.5c0-0.1,0-0.1,0.1-0.1h11.5c0.1,0,0.2,0,0.2,0.1v2.5
		c0,0.1-0.1,0.2-0.2,0.2h-2l-0.4,1.1h3.9v1.2H61.2v-1.2h4.1L64.9,23.1z M75.5,18.7v1.1h-14v-1.1H75.5z M69.6,16.2v-1H71v-0.9h-1.4
		v-1H71v-0.8h-1.5v-1H71v-0.9h1.1v0.9h1.4v1h-1.4v0.8h1.3v1h-1.3v0.8h1.4v1h-1.4v0.8h1.7c0.1,0,0.2-0.1,0.2-0.2V11h1.3v6.5
		c0,0.3-0.2,0.5-0.5,0.5H62.2c-0.3,0-0.5-0.2-0.5-0.5V11h1.2v5.7c0,0.1,0.1,0.2,0.2,0.2h1.7v-0.8h-1.4v-1h1.4v-0.9h-1.3v-1h1.3v-0.8
		h-1.4v-1h1.4v-0.9h1.1v0.9H67v1h-1.2v0.8H67v1h-1.2v0.9h1.3v1h-1.3v0.8h1.9v-6.1H69v6.1h2v-0.8L69.6,16.2L69.6,16.2z M63.8,21.2
		L63.8,21.2v0.6V22H73l0.1-0.1v-0.6H73L63.8,21.2L63.8,21.2z M70.5,24l0.4-0.9L71,23h-4.7l0.4,1.1h3.8V24z"/>
	<path class="st0" d="M80.1,13.6h4.7v1.2h-4.7V13.6z M81.5,24.7v0.4h-1.3v-4.7c0-0.2,0.1-0.4,0.4-0.4h3.5c0.3,0,0.4,0.1,0.4,0.4v3.9
		c0,0.3-0.1,0.4-0.4,0.4H81.5z M80.4,11.4h3.9v1.2h-3.9V11.4z M80.4,15.8h3.9V17h-3.9V15.8z M80.4,17.9h3.9v1.2h-3.9V17.9z M83,21.2
		h-1.4c-0.1,0-0.2,0.1-0.2,0.2v2h1.5c0.2,0,0.2-0.1,0.2-0.2v-1.8C83.2,21.2,83.2,21.2,83,21.2z M87.2,16C87,16,87,16,87.2,16
		c-0.5,0.4-1.1,0.8-1.6,1l-0.8-1.1c0.3-0.1,0.9-0.4,1.7-1c-0.3-0.3-0.9-0.6-1.4-1.2l0.9-0.9c0.8,0.6,1.3,1.1,1.5,1.3
		c0.6-0.5,1.1-1.2,1.5-1.7h-2.7v-1.1H90c0.2,0,0.3,0.1,0.4,0.2c0.2,0.3,0.3,0.5,0.5,0.9c0.5-0.5,0.9-1.1,1.1-1.4l0.9,0.8
		c-0.3,0.5-0.8,1.1-1.3,1.6c0.1,0.2,0.3,0.3,0.4,0.5c0.5-0.6,1.1-1.3,1.4-1.7l1,0.8c-0.3,0.5-0.9,1.2-1.4,1.8
		c0.5,0.4,1.1,0.9,1.8,1.2l-1,1c-0.3-0.2-0.8-0.4-1-0.8v0.9h-5.7L87.2,16L87.2,16z M92,24h2.5v1.2h-8.9V24H88
		c-0.2-0.9-0.3-1.6-0.5-2.3h-1.1c-0.2,0-0.3-0.1-0.3-0.3V18c0-0.2,0.1-0.3,0.3-0.3h7.2c0.2,0,0.3,0.1,0.3,0.3v3.4
		c0,0.2-0.1,0.3-0.3,0.3h-1c-0.1,0.3-0.1,0.6-0.2,1.1C92.2,23.3,92.1,23.7,92,24z M92.5,18.9h-5.3l0,0v1.6v0.1h5.3
		c0,0,0.1,0,0.1-0.1L92.5,18.9C92.5,19,92.5,18.9,92.5,18.9z M87.6,15.7h4.7c-0.9-0.6-1.6-1.5-2.4-2.6
		C89.4,13.9,88.6,14.8,87.6,15.7z M91.1,22.5c0.1-0.2,0.1-0.4,0.1-0.6h-2.6c0.2,0.9,0.4,1.6,0.5,2.3h1.5
		C90.8,23.6,90.9,23.1,91.1,22.5z"/>
	<path class="st0" d="M105.1,20.8h-2.7V20c-0.6,0.6-1.4,1.2-2.3,1.7l-1.1-1c1.3-0.8,2.5-1.7,3.4-2.7h-3.2v-1.3h4.3
		c0.4-0.5,0.8-1.1,1-1.6l0,0h-4.7v-1.3h5.3c0.2-0.9,0.4-1.9,0.5-3l1.4,0.1c-0.1,0.8-0.3,1.7-0.6,2.9h1.9c0.8-1.2,1.3-2.2,1.6-2.9
		l1.2,0.6c-0.3,0.8-0.8,1.5-1.2,2.3h2.9V15h-4.6c0.3,0.6,0.6,1.2,1,1.7h4.2V18h-3.1c0.9,0.9,1.9,1.7,3.4,2.6l-1.1,1.1
		c-0.5-0.4-1.1-0.8-1.6-1.2c0,1,0,1.7-0.1,2.5c0,0.8-0.2,1.4-0.4,1.7s-0.5,0.5-1,0.6c-0.8,0.2-1.8,0.2-3.2-0.2v-1.6
		c0.5,0.2,1.1,0.4,1.5,0.4c0.6,0.1,1.2,0,1.6-0.3c0.2-0.2,0.3-0.5,0.3-0.9c0.1-1.1,0.1-1.6,0-1.8c0-0.1-0.1-0.1-0.2-0.1h-3
		c-0.2,0.4-0.4,0.9-0.6,1.3c-0.1,0.1-0.2,0.3-0.3,0.4c-1.2,1.5-3,2.4-5.7,2.7l-0.3-1.4c0.6-0.1,1.2-0.2,1.7-0.2
		C103.3,23.3,104.6,22.3,105.1,20.8z M101.4,11.6l1.1-0.8c0.4,0.5,1,1.2,1.5,2l-1.2,0.8C102.2,12.6,101.8,12,101.4,11.6z
		 M102.9,19.6h7.3c-0.2-0.2-0.8-0.8-1.4-1.6h-4.5C103.9,18.4,103.5,19,102.9,19.6z M108,16.7c-0.3-0.5-0.6-1.1-0.9-1.7h-1
		c-0.1,0.3-0.4,0.9-0.9,1.7H108z"/>
</g>
<rect x="118.9" y="13.1" class="st0" width="0.5" height="10"/>
</svg>
