<?xml version="1.0" encoding="utf-8"?>
<!-- Generator: Adobe Illustrator 27.0.0, SVG Export Plug-In . SVG Version: 6.00 Build 0)  -->
<svg version="1.1" id="_圖層_1" xmlns="http://www.w3.org/2000/svg" xmlns:xlink="http://www.w3.org/1999/xlink" x="0px" y="0px"
	 viewBox="0 0 111 36.1" style="enable-background:new 0 0 111 36.1;" xml:space="preserve">
<style type="text/css">
	.st0{fill:#232323;}
	.st1{fill:#FFFFFF;}
	.st2{fill:url(#SVGID_1_);}
	.st3{fill:url(#SVGID_00000181088099532789767540000003958628897157244075_);}
	.st4{fill:url(#SVGID_00000126318429127759279210000006039623011128165001_);}
	.st5{fill:url(#SVGID_00000177447879898704038460000017175810563092393860_);}
	.st6{fill:url(#SVGID_00000106836370816638368950000005692901180972022444_);}
</style>
<g>
	<g>
		<g>
			<path class="st0" d="M52,29.7L52,29.7L52,29.7c-0.1,0.5-0.1,0.9-0.2,1S51.6,31,51.4,31h-1.7c-0.2,0-0.3,0-0.4-0.1
				c-0.1-0.1-0.2-0.3-0.2-0.6V27c0.1,0.1,0.1,0.1,0.2,0.1c1.2,0.7,2.2,1.4,2.8,2l0.1,0.1l0.6-0.8l-0.1-0.1c-0.1-0.1-0.1-0.1-0.3-0.3
				c-0.8-0.6-1.9-1.4-3.1-2h-0.1l-0.2,0.2v-4.6h-1v8.8c0,0.5,0.1,0.9,0.2,1.1c0.2,0.3,0.6,0.5,1.2,0.5h1.9c0.4,0,0.6-0.1,0.9-0.3
				c0.3-0.3,0.4-0.8,0.5-1.7V30h-0.1C52.5,30,52.2,29.9,52,29.7L52,29.7z"/>
			<path class="st0" d="M45.6,26.1c0,0.3,0,0.5,0,0.6c-1.5,0.7-2.6,1.2-3.3,1.4h-0.1l0.5,1l0.1-0.1c1.5-0.7,2.5-1.2,2.8-1.4
				c-0.1,0.3-0.1,0.6-0.3,0.9c-0.4,1.2-1.4,2.2-3,2.8l-0.1,0.1l0.1,0.1c0.2,0.2,0.4,0.4,0.5,0.7l0.1,0.1H43c1.4-0.6,2.4-1.5,3-2.6
				c0.5-0.9,0.7-2.1,0.7-3.6v-4.4h-1L45.6,26.1L45.6,26.1z"/>
			<path class="st0" d="M42.8,23.2c0.8,1,1.3,1.9,1.5,2.6l0.1,0.1l0.9-0.5v-0.1c0-0.1-0.1-0.1-0.1-0.1c-0.4-0.8-1-1.7-1.7-2.6
				l-0.1-0.1l-0.8,0.4l0.1,0.1C42.6,23.1,42.7,23.1,42.8,23.2L42.8,23.2z"/>
			<path class="st0" d="M50.2,25.8c0.6-0.6,1.2-1.5,2-2.8l0.1-0.1l-1-0.5l-0.1,0.1c-0.1,0.1-0.1,0.1-0.1,0.3c-0.5,1-1.1,1.9-1.7,2.6
				l-0.1,0.1L50.2,25.8L50.2,25.8L50.2,25.8z"/>
		</g>
		<g>
			<path class="st0" d="M64,30.1L64,30.1l1-0.1v-2.3h-7.5V30h1l0.1,0.1c0.3,0.4,0.4,0.7,0.6,1h-3.1v0.8h10.3v-0.8h-3
				C63.5,30.8,63.8,30.5,64,30.1L64,30.1z M63,30c-0.1,0.3-0.3,0.6-0.6,1l-0.1,0.1h-2.2v-0.1c-0.1-0.3-0.3-0.7-0.6-1H63z M64.1,28.5
				v0.9h-5.6v-0.9H64.1z"/>
			<rect x="56.3" y="26.6" class="st0" width="9.9" height="0.7"/>
			<polygon class="st0" points="65.7,21.8 64.8,21.8 64.8,25.4 63.5,25.4 63.5,24.9 64.7,24.9 64.7,24.3 63.5,24.3 63.5,23.9 
				64.5,23.9 64.5,23.3 63.5,23.3 63.5,22.9 64.6,22.9 64.6,22.3 63.5,22.3 63.5,21.7 62.9,21.7 62.9,22.3 61.9,22.3 61.9,22.9 
				62.9,22.9 62.9,23.3 62,23.3 62,23.9 62.9,23.9 62.9,24.3 61.8,24.3 61.8,24.9 62.9,24.9 62.9,25.4 61.6,25.4 61.6,21.5 
				60.8,21.5 60.8,25.4 59.6,25.4 59.6,24.9 60.6,24.9 60.6,24.3 59.6,24.3 59.6,23.9 60.4,23.9 60.4,23.3 59.6,23.3 59.6,22.9 
				60.5,22.9 60.5,22.3 59.6,22.3 59.6,21.7 58.9,21.7 58.9,22.3 57.9,22.3 57.9,22.9 58.9,22.9 58.9,23.3 58,23.3 58,23.9 
				58.9,23.9 58.9,24.3 57.8,24.3 57.8,24.9 58.9,24.9 58.9,25.4 57.6,25.4 57.6,21.8 56.8,21.8 56.8,26.2 65.7,26.2 			"/>
		</g>
		<g>
			<path class="st0" d="M77.6,28.2l1-0.1c0.3,0.1,0.5,0.3,0.6,0.5l0.1,0.1l0.6-0.6L79.8,28c-0.5-0.4-1-0.7-1.8-1h1.1v-3.2h-3.6v-0.6
				h4.4v-0.8h-4.4v-0.8h-1v0.9h-4.4v0.8h4.4v0.6h-3.5v3.3h3.5v0.5c-1.6,0-3,0.1-4.2,0.1h-0.1l0.1,0.8h0.1c2-0.1,4.1-0.1,6.3-0.1v0.6
				h-6.9v0.8h2.3l-0.5,0.5l0.1,0.1c0,0,0.1,0,0.1,0.1c0.8,0.5,1.5,1,1.9,1.5l0.1,0.1l0.7-0.6l-0.1-0.1l-0.1-0.1
				c-0.4-0.4-1-0.9-1.7-1.3h4.1v1.5c0,0.1,0,0.1-0.2,0.1c-0.3,0-0.8,0-1.5,0h-0.1l0.1,0.1c0.1,0.3,0.3,0.5,0.3,0.7v0.1h0.1
				c1,0,1.6-0.1,1.9-0.1c0.1,0,0.1-0.1,0.2-0.1c0.3-0.1,0.3-0.4,0.3-0.8v-1.6h2.8v-1h-2.8V28.2L77.6,28.2z M74.5,25.7v0.6h-2.6v-0.6
				H74.5z M74.5,24.4V25h-2.6v-0.6H74.5z M75.5,25v-0.6h2.7V25H75.5z M75.5,26.3v-0.6h2.7v0.6H75.5z M75.5,27h1.4l-0.3,0.3l0.1,0.1
				c0.1,0.1,0.4,0.1,0.6,0.3l-1.9,0.1L75.5,27L75.5,27z"/>
		</g>
		<g>
			<path class="st0" d="M92.7,26.9h-3.2V30h3.2V26.9z M90.3,29.3v-1.6h1.5v1.6H90.3z"/>
			<polygon class="st0" points="84.8,30.7 84.8,22.9 93.6,22.9 93.6,22 83.8,22 83.8,32.1 84.8,32.1 84.8,31.6 93.8,31.6 93.8,30.7 
							"/>
			<path class="st0" d="M91.3,23.5h-4.4v2.6h4.4V23.5z M87.8,25.5v-1.2h2.5v1.2H87.8z"/>
			<path class="st0" d="M85.6,30h3.1v-3.1h-3.1C85.6,26.9,85.6,30,85.6,30z M87.9,27.6v1.6h-1.4v-1.6H87.9z"/>
		</g>
	</g>
</g>
<g>
	<g>
		<g>
			<g>
				<path class="st1" d="M1.6,18c0-9.3,7.5-16.8,16.8-16.8c9.3,0,16.8,7.5,16.8,16.8c0,9.3-7.5,16.8-16.8,16.8
					C9.1,34.8,1.6,27.3,1.6,18z"/>
			</g>
			
				<linearGradient id="SVGID_1_" gradientUnits="userSpaceOnUse" x1="-7413.1675" y1="25810.4121" x2="-7413.1675" y2="25810.4121" gradientTransform="matrix(-7.760000e-02 0 0 5.160000e-02 -556.9442 -1313.7981)">
				<stop  offset="0" style="stop-color:#FFFFFF"/>
				<stop  offset="1" style="stop-color:#AC2025"/>
			</linearGradient>
			<polygon class="st2" points="18.3,18 18.3,18 18.3,18 			"/>
			
				<linearGradient id="SVGID_00000049922233756354658000000008510318487754389901_" gradientUnits="userSpaceOnUse" x1="-9189.6328" y1="-21874.7676" x2="-9626.0645" y2="-21874.7676" gradientTransform="matrix(-6.050000e-02 0 0 -6.050000e-02 -550.2929 -1313.8119)">
				<stop  offset="0" style="stop-color:#FFFFFF"/>
				<stop  offset="0.1488" style="stop-color:#E5D9BB"/>
				<stop  offset="0.3996" style="stop-color:#BA9C4C"/>
				<stop  offset="0.5112" style="stop-color:#A98320"/>
				<stop  offset="0.6407" style="stop-color:#A57F21"/>
				<stop  offset="0.7811" style="stop-color:#987325"/>
				<stop  offset="0.9261" style="stop-color:#825F2C"/>
				<stop  offset="1" style="stop-color:#745230"/>
			</linearGradient>
			<path style="fill:url(#SVGID_00000049922233756354658000000008510318487754389901_);" d="M6,10.4c3.1-2.2,7.4-3.6,12.3-3.6
				c4.8,0,9.2,1.4,12.3,3.6c2.8,2,4.5,4.7,4.5,7.7c0-6.3-3.4-11.7-8.5-14.6c-2.3-1.3-5-2.1-7.8-2.2c0,0,0,0,0,0c-0.1,0-0.3,0-0.4,0
				l0,0l0,0c-0.1,0-0.3,0-0.4,0c0,0,0,0,0,0C15,1.3,12.4,2.1,10,3.4C7.6,4.9,6,7.1,6,9.6C6,9.9,6,10.1,6,10.4z"/>
			
				<linearGradient id="SVGID_00000164472831687429231820000017669016714714970767_" gradientUnits="userSpaceOnUse" x1="-9445.6592" y1="-21784.5508" x2="-9622.5469" y2="-22201.2715" gradientTransform="matrix(-6.050000e-02 0 0 -6.050000e-02 -550.2929 -1313.8119)">
				<stop  offset="0" style="stop-color:#FFFFFF"/>
				<stop  offset="2.931193e-02" style="stop-color:#F9F6EE"/>
				<stop  offset="0.1641" style="stop-color:#DDCDA6"/>
				<stop  offset="0.285" style="stop-color:#C6AD6C"/>
				<stop  offset="0.3878" style="stop-color:#B69643"/>
				<stop  offset="0.4684" style="stop-color:#AD8829"/>
				<stop  offset="0.5169" style="stop-color:#A98320"/>
				<stop  offset="0.7465" style="stop-color:#8E6A28"/>
				<stop  offset="1" style="stop-color:#745230"/>
			</linearGradient>
			<path style="fill:url(#SVGID_00000164472831687429231820000017669016714714970767_);" d="M30.6,25.7c0,0.2,0.1,0.5,0.1,0.7
				c0,2.5-1.6,4.7-4,6.2c5.1-2.9,8.5-8.4,8.5-14.6c0-3-1.7-5.6-4.5-7.7c-3.1-2.2-7.4-3.6-12.3-3.6V18C24.8,18,30,21.4,30.6,25.7z"/>
			
				<linearGradient id="SVGID_00000013905719381879028010000007750109290029448877_" gradientUnits="userSpaceOnUse" x1="9740.3818" y1="22148.3633" x2="9303.9355" y2="22148.3633" gradientTransform="matrix(6.050000e-02 0 0 6.050000e-02 -558.3203 -1313.5509)">
				<stop  offset="0" style="stop-color:#FFFFFF"/>
				<stop  offset="0.1488" style="stop-color:#E5D9BB"/>
				<stop  offset="0.3996" style="stop-color:#BA9C4C"/>
				<stop  offset="0.5112" style="stop-color:#A98320"/>
				<stop  offset="0.6407" style="stop-color:#A57F21"/>
				<stop  offset="0.7811" style="stop-color:#987325"/>
				<stop  offset="0.9261" style="stop-color:#825F2C"/>
				<stop  offset="1" style="stop-color:#745230"/>
			</linearGradient>
			<path style="fill:url(#SVGID_00000013905719381879028010000007750109290029448877_);" d="M30.6,25.7c-3.1,2.2-7.4,3.6-12.3,3.6
				c-4.8,0-9.2-1.4-12.3-3.6c-2.8-2-4.5-4.7-4.5-7.7c0,6.3,3.4,11.7,8.5,14.6c2.3,1.3,5,2.1,7.8,2.2c0,0,0,0,0,0c0.1,0,0.3,0,0.4,0
				l0,0l0,0c0.1,0,0.3,0,0.4,0c0,0,0,0,0,0c2.8-0.1,5.5-0.9,7.8-2.2c2.5-1.5,4-3.8,4-6.2C30.6,26.2,30.6,25.9,30.6,25.7z"/>
			
				<linearGradient id="SVGID_00000005959199935403302010000003145006898734399360_" gradientUnits="userSpaceOnUse" x1="9484.1025" y1="22238.6895" x2="9307.2334" y2="21822.0117" gradientTransform="matrix(6.050000e-02 0 0 6.050000e-02 -558.3203 -1313.5509)">
				<stop  offset="0" style="stop-color:#FFFFFF"/>
				<stop  offset="2.931193e-02" style="stop-color:#F9F6EE"/>
				<stop  offset="0.1641" style="stop-color:#DDCDA6"/>
				<stop  offset="0.285" style="stop-color:#C6AD6C"/>
				<stop  offset="0.3878" style="stop-color:#B69643"/>
				<stop  offset="0.4684" style="stop-color:#AD8829"/>
				<stop  offset="0.5169" style="stop-color:#A98320"/>
				<stop  offset="0.7465" style="stop-color:#8E6A28"/>
				<stop  offset="1" style="stop-color:#745230"/>
			</linearGradient>
			<path style="fill:url(#SVGID_00000005959199935403302010000003145006898734399360_);" d="M6,10.4c0-0.3,0-0.5,0-0.8
				c0-2.5,1.6-4.7,4-6.2C4.9,6.3,1.5,11.7,1.5,18c0,3,1.7,5.7,4.5,7.7c3.1,2.2,7.4,3.6,12.3,3.6V18C11.9,18,6.6,14.7,6,10.4z"/>
		</g>
	</g>
	<g>
		<path class="st0" d="M46.6,3.2h1.3v6.7c0,1.9-0.4,3.3-1,4.4c-0.4,0.6-0.8,1.1-1.4,1.4c-0.6,0.4-1.4,0.7-2.5,0.9l-0.8-1.2
			c0.8-0.1,1.6-0.3,2.3-0.6c1.3-0.7,2-2.2,2.1-4.4c-1,0.8-2.2,1.6-3.6,2.4l-0.7-1.2c1.8-1,3.3-1.9,4.3-2.7V3.2z M43.6,4.3
			c0.8,0.8,1.6,2,2.3,3.3l-1.1,0.7c-0.9-1.4-1.6-2.5-2.3-3.3L43.6,4.3z M50.9,3.2v11.3c0,0.2,0.1,0.4,0.2,0.5
			c0.2,0.1,0.3,0.2,0.5,0.2h2.1c0.1,0,0.2,0,0.4-0.1c0.1,0,0.2-0.7,0.2-1.8l1.2,0.2c-0.1,1.6-0.2,2.4-0.4,2.5
			c-0.3,0.3-0.6,0.5-0.9,0.5h-3.4c-0.3,0-0.6-0.2-0.9-0.4c-0.2-0.3-0.4-0.5-0.4-0.8v-12H50.9z M55.2,4.7c-0.7,1.1-1.7,2.2-2.9,3.4
			l-0.9-0.8c1.3-1.3,2.3-2.4,2.9-3.4L55.2,4.7z M52.2,8.8c1,0.6,2.2,1.5,3.4,2.7l-0.8,1c-1.3-1.2-2.4-2.1-3.4-2.7L52.2,8.8z"/>
		<path class="st0" d="M63.3,14.5h-2c-0.1,0-0.1-0.1-0.1-0.2V12c0-0.1,0-0.1,0.1-0.1H72c0.1,0,0.2,0,0.2,0.1v2.3
			c0,0.1-0.1,0.2-0.2,0.2h-1.9l-0.4,1h3.6v1.1H59.9v-1.1h3.8L63.3,14.5z M73.2,10.4v1H60.1v-1H73.2z M67.7,8.1V7.2H69V6.4h-1.3V5.5
			H69V4.8h-1.4V3.9H69V3.1h1v0.8h1.3v0.9h-1.3v0.7h1.2v0.9h-1.2v0.7h1.3v0.9h-1.3v0.7h1.6c0.1,0,0.2-0.1,0.2-0.2V3.3H73v6
			c0,0.3-0.2,0.5-0.5,0.5H60.8c-0.3,0-0.5-0.2-0.5-0.5v-6h1.1v5.3c0,0.1,0.1,0.2,0.2,0.2h1.6V8.1h-1.3V7.2h1.3V6.4h-1.2V5.5h1.2V4.8
			h-1.3V3.9h1.3V3.1h1v0.8h1.1v0.9h-1.1v0.7h1.1v0.9h-1.1v0.8h1.2v0.9h-1.2v0.7H66V3.1h1.1v5.7H69V8.1H67.7z M62.3,12.8
			C62.3,12.8,62.3,12.8,62.3,12.8l0,0.6l0,0.1h8.6l0.1-0.1v-0.6l-0.1,0H62.3z M68.5,15.4l0.4-0.8l0.1-0.2h-4.4l0.4,1H68.5z"/>
		<path class="st0" d="M77.4,5.7h4.4v1.1h-4.4V5.7z M78.7,16v0.4h-1.2V12c0-0.2,0.1-0.4,0.4-0.4h3.3c0.3,0,0.4,0.1,0.4,0.4v3.6
			c0,0.3-0.1,0.4-0.4,0.4H78.7z M77.7,3.6h3.6v1.1h-3.6V3.6z M77.7,7.7h3.6v1.1h-3.6V7.7z M77.7,9.7h3.6v1.1h-3.6V9.7z M80.1,12.8
			h-1.3c-0.1,0-0.2,0.1-0.2,0.2v1.9h1.4c0.2,0,0.2-0.1,0.2-0.2v-1.7C80.3,12.8,80.3,12.8,80.1,12.8z M84,7.9
			C83.9,7.9,83.9,7.9,84,7.9c-0.5,0.4-1,0.7-1.5,0.9l-0.7-1c0.3-0.1,0.8-0.4,1.6-0.9c-0.3-0.3-0.8-0.6-1.3-1.1l0.8-0.8
			c0.7,0.6,1.2,1,1.4,1.2c0.6-0.5,1-1.1,1.4-1.6h-2.5V3.6h3.4c0.2,0,0.3,0.1,0.4,0.2c0.2,0.3,0.3,0.5,0.5,0.8c0.5-0.5,0.8-1,1-1.3
			l0.8,0.7c-0.3,0.5-0.7,1-1.2,1.5c0.1,0.2,0.3,0.3,0.4,0.5c0.5-0.6,1-1.2,1.3-1.6l0.9,0.7c-0.3,0.5-0.8,1.1-1.3,1.7
			c0.5,0.4,1,0.8,1.7,1.1l-0.9,0.9c-0.3-0.2-0.7-0.4-0.9-0.7v0.8H84V7.9z M88.5,15.4h2.3v1.1h-8.3v-1.1h2.2
			c-0.2-0.8-0.3-1.5-0.5-2.1h-1c-0.2,0-0.3-0.1-0.3-0.3V9.8c0-0.2,0.1-0.3,0.3-0.3h6.7c0.2,0,0.3,0.1,0.3,0.3V13
			c0,0.2-0.1,0.3-0.3,0.3H89c-0.1,0.3-0.1,0.6-0.2,1C88.7,14.7,88.6,15.1,88.5,15.4z M89,10.6h-4.9c0,0,0,0,0,0v1.5c0,0,0,0.1,0,0.1
			H89c0,0,0.1,0,0.1-0.1L89,10.6C89,10.7,89,10.6,89,10.6z M84.4,7.6h4.4C88,7,87.3,6.2,86.6,5.2C86.1,6,85.3,6.8,84.4,7.6z
			 M87.7,14c0.1-0.2,0.1-0.4,0.1-0.6h-2.4c0.2,0.8,0.4,1.5,0.5,2.1h1.4C87.4,15,87.5,14.5,87.7,14z"/>
		<path class="st0" d="M100.7,12.4h-2.5v-0.8c-0.6,0.6-1.3,1.1-2.1,1.6l-1-0.9c1.2-0.7,2.3-1.6,3.2-2.5h-3V8.6h4
			c0.4-0.5,0.7-1,0.9-1.5v0h-4.4V5.9h4.9c0.2-0.8,0.4-1.8,0.5-2.8l1.3,0.1c-0.1,0.7-0.3,1.6-0.6,2.7h1.8c0.7-1.1,1.2-2,1.5-2.7
			l1.1,0.6c-0.3,0.7-0.7,1.4-1.1,2.1h2.7V7h-4.3c0.3,0.6,0.6,1.1,0.9,1.6h3.9v1.2h-2.9c0.8,0.8,1.8,1.6,3.2,2.4l-1,1
			c-0.5-0.4-1-0.7-1.5-1.1c0,0.9,0,1.6-0.1,2.3c0,0.7-0.2,1.3-0.4,1.6c-0.2,0.3-0.5,0.5-0.9,0.6c-0.7,0.2-1.7,0.2-3-0.2l0-1.5
			c0.5,0.2,1,0.4,1.4,0.4c0.6,0.1,1.1,0,1.5-0.3c0.2-0.2,0.3-0.5,0.3-0.8c0.1-1,0.1-1.5,0-1.7c0-0.1-0.1-0.1-0.2-0.1h-2.8
			c-0.2,0.4-0.4,0.8-0.6,1.2c-0.1,0.1-0.2,0.3-0.3,0.4c-1.1,1.4-2.8,2.2-5.3,2.5l-0.3-1.3c0.6-0.1,1.1-0.2,1.6-0.2
			C99,14.7,100.2,13.8,100.7,12.4z M97.2,3.8l1-0.7c0.4,0.5,0.9,1.1,1.4,1.9l-1.1,0.7C98,4.8,97.6,4.2,97.2,3.8z M98.6,11.3h6.8
			c-0.2-0.2-0.7-0.7-1.3-1.5h-4.2C99.6,10.2,99.2,10.7,98.6,11.3z M103.4,8.6c-0.3-0.5-0.6-1-0.8-1.6h-0.9c-0.1,0.3-0.4,0.8-0.8,1.6
			H103.4z"/>
	</g>
</g>
</svg>
