<?xml version="1.0" encoding="utf-8"?>
<!-- Generator: Adobe Illustrator 27.0.0, SVG Export Plug-In . SVG Version: 6.00 Build 0)  -->
<svg version="1.1" id="圖層_1" xmlns="http://www.w3.org/2000/svg" xmlns:xlink="http://www.w3.org/1999/xlink" x="0px" y="0px"
	 viewBox="0 0 360 60" style="enable-background:new 0 0 360 60;" xml:space="preserve">
<style type="text/css">
	.st0{fill:#231815;}
	.st1{fill:#FFFFFF;}
	.st2{fill:url(#SVGID_1_);}
	.st3{fill:url(#SVGID_00000124839868608909297270000011217311462982901900_);}
	.st4{fill:url(#SVGID_00000171707001535597793040000001014721463779702700_);}
	.st5{fill:url(#SVGID_00000133530160503854647990000009699469479566710679_);}
	.st6{fill:none;stroke:#231815;stroke-miterlimit:10;}
	.st7{enable-background:new    ;}
</style>
<g>
	<g>
		<g>
			<g>
				<path class="st0" d="M78.1,38.7h2.3l3.3,9.4h0l3.3-9.4h2.3v11.5h-1.5v-9.5h0l-3.3,9.5H83l-3.3-9.5h0v9.5h-1.5L78.1,38.7
					L78.1,38.7z"/>
				<path class="st0" d="M97.1,50.1c-0.7,0.2-1.1,0.3-2,0.3c-2.4,0-3.9-1.4-3.9-4.5c0-3.4,2.2-3.8,3.2-3.8c1.9,0,2.9,1.3,2.9,3.2
					v0.4h-4.6c0,1.5,0.8,3.6,2.9,3.6c0.7,0,1.2-0.2,1.5-0.3C97.1,48.9,97.1,50.1,97.1,50.1z M95.8,44.6c0-0.5-0.3-1.4-1.4-1.4
					c-1.2,0-1.6,1-1.6,1.4H95.8z"/>
				<path class="st0" d="M105.3,50.5c0,2.3-1.3,3.2-3.7,3.2c-1.2,0-2.1-0.2-2.4-0.3v-1.5c0.5,0.2,1.3,0.6,2.3,0.6
					c2.3,0,2.3-1.6,2.3-2.5v-1.2h0c-0.2,0.4-0.8,1.3-2.2,1.3c-2.1,0-2.7-1.9-2.7-4c0-2.2,0.8-4.1,2.8-4.1c1.3,0,1.9,0.9,2.1,1.3h0
					v-1.1h1.5C105.3,42.2,105.3,50.5,105.3,50.5z M102.1,49c1.3,0,1.8-1.7,1.8-3c0-1.2-0.4-2.8-1.7-2.8c-1.3,0-1.6,1.8-1.6,2.9
					C100.5,47.2,100.7,49,102.1,49z"/>
				<path class="st0" d="M111.5,49.2L111.5,49.2c-0.2,0.4-0.9,1.2-2.1,1.2c-1.5,0-2.2-0.9-2.2-2.1c0-2.1,2.3-2.6,4.3-2.6v-1.4
					c-0.1-0.8-0.7-1-1.2-1c-0.9,0-1.3,0.6-1.3,1.2h-1.6c0-1.3,0.8-2.4,3-2.4c2.6,0,2.6,2,2.6,2.7v5.4h-1.5L111.5,49.2L111.5,49.2z
					 M111.2,46.6c-1.2,0-2.4,0.5-2.4,1.5c0,0.6,0.4,1,0.9,1c1,0,1.8-1.2,1.8-2.1v-0.4H111.2z"/>
				<path class="st0" d="M123.4,43.9c1.1,0.6,2.4,1.3,2.4,3.2c0,2.2-1.8,3.3-4.1,3.3c-1.4,0-2.6-0.3-2.9-0.5v-1.7
					c0.7,0.4,1.8,0.8,3,0.8c1.1,0,2.2-0.5,2.2-1.7c0-1.2-1-1.7-1.9-2.2l-1.1-0.6c-1.1-0.6-2.5-1.3-2.5-3c0-2,1.7-3,3.8-3
					c1.1,0,2.2,0.2,2.6,0.3v1.6c-0.2-0.1-1.5-0.6-2.7-0.6c-1.1,0-1.9,0.5-1.9,1.5c0,0.9,1,1.5,1.9,1.9L123.4,43.9z"/>
				<path class="st0" d="M133,50.1c-0.6,0.2-1.1,0.3-2,0.3c-2.4,0-3.9-1.4-3.9-4.5c0-3.4,2.2-3.8,3.2-3.8c1.9,0,2.9,1.3,2.9,3.2v0.4
					h-4.6c0,1.5,0.8,3.6,2.9,3.6c0.7,0,1.1-0.2,1.5-0.3L133,50.1L133,50.1z M131.7,44.6c0-0.5-0.3-1.4-1.4-1.4c-1.2,0-1.6,1-1.6,1.4
					H131.7z"/>
				<path class="st0" d="M140.6,50c-0.6,0.2-1.3,0.3-2.2,0.3c-3,0-3.9-2.5-3.9-4.4c0-2.2,1-3.9,3.4-3.9c2.2,0,2.8,1.5,2.8,2.8h-1.7
					c0-0.6-0.1-1.6-1.2-1.6c-1,0-1.6,1-1.6,2.4c0,1.6,0.6,3.5,3.1,3.5c0.4,0,0.8,0,1.3-0.2L140.6,50L140.6,50z"/>
				<path class="st0" d="M146.7,48.4L146.7,48.4c-0.3,0.7-0.9,1.9-2.5,1.9c-1.8,0-2.1-1.6-2.1-2.6v-5.5h1.5v4.3c0,1.5,0,2.3,1.1,2.3
					c1.2,0,2.1-1.7,2.1-3.2v-3.4h1.5v7.9h-1.5L146.7,48.4L146.7,48.4z"/>
				<path class="st0" d="M150.7,42.2h1.5v1.6h0c0.2-0.6,0.9-1.8,2.4-1.8v1.6c-1.4,0-2.5,0.7-2.5,3.1v3.4h-1.5L150.7,42.2L150.7,42.2
					z"/>
				<path class="st0" d="M156,38.7h1.8v1.7H156V38.7z M156.2,42.2h1.5v7.9h-1.5V42.2z"/>
				<path class="st0" d="M164.3,50.2c-0.4,0.1-0.8,0.1-1.2,0.1c-1.9,0-2.4-0.8-2.4-1.9v-5h-1.4v-1.2h1.4v-1.9l1.5-0.9v2.8h2.2v1.2
					h-2.2v4.2c0,0.7,0.1,1.5,1.3,1.5c0.3,0,0.6,0,0.8-0.1V50.2z"/>
				<path class="st0" d="M165.9,38.7h1.8v1.7h-1.8V38.7z M166.1,42.2h1.5v7.9h-1.5V42.2z"/>
				<path class="st0" d="M175.5,50.1c-0.6,0.2-1.1,0.3-2,0.3c-2.4,0-3.9-1.4-3.9-4.5c0-3.4,2.2-3.8,3.2-3.8c1.9,0,2.9,1.3,2.9,3.2
					v0.4h-4.6c0,1.5,0.8,3.6,2.9,3.6c0.7,0,1.1-0.2,1.5-0.3L175.5,50.1L175.5,50.1z M174.1,44.6c0-0.5-0.3-1.4-1.4-1.4
					c-1.2,0-1.6,1-1.6,1.4H174.1z"/>
				<path class="st0" d="M180.1,45.6c0.8,0.5,1.8,1,1.8,2.3c0,1.7-1.2,2.4-3,2.4c-1.1,0-1.8-0.2-2.1-0.3v-1.3c0.1,0.1,1.2,0.5,2,0.5
					c0.7,0,1.6-0.2,1.6-1c0-0.6-0.7-0.9-1.3-1.3l-0.8-0.5c-0.7-0.5-1.6-1-1.6-2.1c0-1.4,1.2-2.2,2.8-2.2c0.8,0,1.4,0.2,1.8,0.3v1.3
					c-0.2-0.1-0.9-0.5-1.8-0.5c-0.6,0-1.3,0.3-1.3,0.8c0,0.5,0.6,0.8,1.1,1.2L180.1,45.6z"/>
			</g>
		</g>
		<g>
			<path class="st0" d="M83.8,10.1h2v10.6c-0.1,2.9-0.6,5.2-1.6,6.9c-0.6,1-1.3,1.7-2.2,2.3c-0.9,0.6-2.3,1.1-4,1.5l-1.2-1.9
				c1.2-0.1,2.5-0.5,3.6-1c2.1-1.1,3.2-3.4,3.3-6.9c-1.6,1.2-3.5,2.5-5.7,3.8l-1-1.9c2.9-1.6,5.2-3,6.8-4.3L83.8,10.1L83.8,10.1z
				 M79.1,11.9c1.2,1.3,2.5,3.1,3.7,5.3l-1.7,1.1c-1.4-2.3-2.6-4-3.6-5.2L79.1,11.9z M90.6,10.1v17.8c0,0.3,0.1,0.6,0.3,0.8
				c0.2,0.2,0.5,0.3,0.8,0.3h3.4c0.2,0,0.4-0.1,0.6-0.2c0.1-0.1,0.2-1,0.3-2.9l1.9,0.3c-0.2,2.5-0.4,3.8-0.6,4
				C96.9,30.7,96.4,31,96,31h-5.3c-0.5,0-1-0.3-1.4-0.7c-0.4-0.4-0.6-0.9-0.6-1.3V10.1H90.6z M97.4,12.4c-1.1,1.7-2.6,3.5-4.6,5.4
				l-1.5-1.3c2.1-2.1,3.6-3.8,4.5-5.3L97.4,12.4z M92.6,19c1.7,1,3.4,2.4,5.4,4.3l-1.3,1.5c-2.1-1.9-3.9-3.3-5.3-4.2L92.6,19z"/>
			<path class="st0" d="M110.2,27.9H107c-0.2,0-0.2-0.1-0.2-0.2v-3.7c0-0.1,0.1-0.2,0.2-0.2h16.8c0.2,0,0.2,0.1,0.2,0.2v3.7
				c0,0.2-0.1,0.2-0.2,0.2h-3l-0.6,1.5h5.8v1.8h-21.2v-1.8h6L110.2,27.9z M125.8,21.4V23h-20.6v-1.6H125.8z M117.2,17.7v-1.4h2v-1.1
				h-2v-1.4h2v-1.2h-2.1v-1.4h2.1V9.9h1.6v1.2h2v1.4h-2v1.2h1.9v1.4h-1.9v1.1h2v1.4h-2v1.1h2.5c0.2,0,0.3-0.1,0.3-0.3v-8.4h1.8v9.5
				c0,0.5-0.3,0.8-0.8,0.8h-18.4c-0.5,0-0.8-0.3-0.8-0.8v-9.5h1.8v8.3c0,0.2,0.1,0.3,0.3,0.3h2.5v-1.1h-2v-1.4h2v-1.2H108v-1.4h1.9
				v-1.1h-2v-1.4h2V9.9h1.6v1.2h1.8v1.4h-1.8v1.1h1.8v1.4h-1.8v1.2h1.9v1.4h-1.9v1.1h2.8v-9h1.8v8.9h3v-1.1L117.2,17.7L117.2,17.7z
				 M108.7,25.2C108.6,25.2,108.6,25.3,108.7,25.2l-0.1,1l0.1,0.1h13.6l0.1-0.1v-1l-0.1-0.1H108.7z M118.3,29.4l0.6-1.2l0.1-0.3
				h-6.9l0.6,1.5C112.7,29.4,118.3,29.4,118.3,29.4z"/>
			<path class="st0" d="M132.4,13.9h6.9v1.8h-6.9V13.9z M134.4,30.2v0.6h-1.9V24c0-0.4,0.2-0.6,0.6-0.6h5.2c0.4,0,0.6,0.2,0.6,0.6
				v5.6c0,0.4-0.2,0.6-0.6,0.6L134.4,30.2L134.4,30.2z M132.9,10.8h5.6v1.8h-5.6V10.8z M132.9,17.2h5.7V19h-5.7V17.2z M132.9,20.4
				h5.7v1.8h-5.7V20.4z M136.8,25.2h-2c-0.2,0-0.3,0.1-0.3,0.3v3h2.3c0.3,0,0.4-0.1,0.4-0.4v-2.6C137.1,25.3,137,25.2,136.8,25.2z
				 M142.8,17.5c-0.1,0-0.1,0.1-0.1,0.1c-0.7,0.5-1.4,1-2.2,1.4l-1.1-1.5c0.4-0.2,1.2-0.7,2.5-1.4c-0.5-0.5-1.2-1-2.1-1.7l1.2-1.3
				c1.2,1,1.9,1.6,2.2,1.9c0.9-0.9,1.6-1.7,2.2-2.6h-4v-1.7h5.4c0.3,0,0.5,0.1,0.6,0.3c0.3,0.4,0.6,0.8,0.8,1.2
				c0.7-0.8,1.3-1.5,1.6-2.1l1.3,1.1c-0.5,0.7-1.1,1.5-1.9,2.4c0.2,0.3,0.4,0.5,0.7,0.8c0.9-1,1.5-1.8,2-2.5l1.4,1
				c-0.5,0.8-1.2,1.7-2.1,2.7c0.8,0.6,1.6,1.2,2.6,1.8l-1.4,1.4c-0.5-0.3-1-0.7-1.5-1v1.2h-8.3L142.8,17.5L142.8,17.5z M149.9,29.4
				h3.7v1.8h-13.2v-1.8h3.5c-0.3-1.2-0.5-2.3-0.8-3.3h-1.5c-0.3,0-0.5-0.2-0.5-0.5v-5.1c0-0.3,0.2-0.5,0.5-0.5h10.5
				c0.3,0,0.5,0.2,0.5,0.5v5.1c0,0.3-0.2,0.5-0.5,0.5h-1.4c-0.1,0.4-0.2,1-0.4,1.6C150.2,28.3,150.1,28.9,149.9,29.4z M150.8,21.8
				H143c-0.1,0-0.1,0-0.1,0.1v2.3c0,0.1,0,0.1,0.1,0.1h7.8c0.1,0,0.1,0,0.1-0.1L150.8,21.8C150.8,21.8,150.8,21.8,150.8,21.8z
				 M143.4,17h7c-1.1-1-2.3-2.3-3.4-3.9C146.1,14.4,144.9,15.7,143.4,17z M148.7,27c0.1-0.4,0.2-0.7,0.2-1h-3.8
				c0.3,1.2,0.6,2.3,0.8,3.3h2.2C148.2,28.7,148.5,27.9,148.7,27z"/>
			<path class="st0" d="M169.3,24.7h-4v-1.3c-0.9,1-2.1,1.8-3.3,2.5l-1.5-1.5c1.9-1.2,3.6-2.5,5.1-3.9h-4.7v-1.9h6.3
				c0.6-0.8,1.1-1.6,1.5-2.4v0h-6.9v-1.9h7.7c0.4-1.3,0.6-2.8,0.8-4.4l2.1,0.2c-0.2,1.1-0.5,2.5-0.9,4.2h2.9
				c1.1-1.7,1.9-3.1,2.4-4.3l1.8,0.9c-0.4,1-1,2.1-1.8,3.3h4.3v1.9h-6.7c0.5,0.9,1,1.8,1.4,2.5h6.1v1.9h-4.6c1.2,1.3,2.9,2.6,5,3.8
				l-1.6,1.5c-0.8-0.6-1.6-1.1-2.3-1.8c0,1.4,0,2.6-0.1,3.7c-0.1,1.1-0.3,2-0.7,2.5c-0.4,0.5-0.9,0.8-1.5,1
				c-1.1,0.4-2.7,0.2-4.8-0.3l0-2.3c0.9,0.4,1.6,0.6,2.2,0.7c1,0.2,1.8,0,2.4-0.5c0.3-0.3,0.4-0.7,0.5-1.3c0.1-1.5,0.1-2.4,0-2.6
				c-0.1-0.1-0.1-0.2-0.2-0.2h-4.4c-0.2,0.7-0.6,1.3-0.9,2c-0.2,0.2-0.3,0.5-0.5,0.7c-1.7,2.1-4.5,3.5-8.4,4l-0.5-2.1
				c0.9-0.1,1.8-0.2,2.5-0.4C166.5,28.2,168.4,26.8,169.3,24.7z M163.8,11.1l1.6-1.2c0.7,0.8,1.4,1.8,2.1,3l-1.7,1.1
				C165.1,12.7,164.4,11.7,163.8,11.1z M165.9,22.8h10.8c-0.4-0.4-1-1.1-2-2.3H168C167.6,21.1,166.9,21.9,165.9,22.8z M173.4,18.6
				c-0.4-0.8-0.9-1.6-1.3-2.5h-1.4c-0.2,0.4-0.6,1.2-1.3,2.5H173.4z"/>
		</g>
	</g>
	<g>
		<g>
			<g>
				<path class="st1" d="M2.6,30.2c0-15.8,12.8-28.6,28.6-28.6c15.8,0,28.6,12.8,28.6,28.6S47,58.8,31.2,58.8
					C15.4,58.8,2.6,46,2.6,30.2z"/>
			</g>
			
				<linearGradient id="SVGID_1_" gradientUnits="userSpaceOnUse" x1="-6300.9619" y1="23426.0723" x2="-7042.3906" y2="23426.0723" gradientTransform="matrix(-6.050000e-02 0 0 6.050000e-02 -371.5801 -1401.3424)">
				<stop  offset="0" style="stop-color:#FFFFFF"/>
				<stop  offset="0.1488" style="stop-color:#E5D9BB"/>
				<stop  offset="0.3996" style="stop-color:#BA9C4C"/>
				<stop  offset="0.5112" style="stop-color:#A98320"/>
				<stop  offset="0.6407" style="stop-color:#A57F21"/>
				<stop  offset="0.7811" style="stop-color:#987325"/>
				<stop  offset="0.9261" style="stop-color:#825F2C"/>
				<stop  offset="1" style="stop-color:#745230"/>
			</linearGradient>
			<path class="st2" d="M10.2,17.2c5.2-3.7,12.6-6,20.9-6s15.6,2.3,20.9,6c4.8,3.4,7.7,8,7.7,13c0-10.7-5.8-20-14.5-24.9
				c-4-2.2-8.5-3.6-13.3-3.7c0,0,0,0-0.1,0c-0.2,0-0.5,0-0.7,0l0,0l0,0c-0.2,0-0.5,0-0.7,0c0,0,0,0-0.1,0C25.5,1.8,21,3.1,17,5.4
				c-4.2,2.6-6.9,6.4-6.9,10.6C10.2,16.4,10.2,16.8,10.2,17.2z"/>
			
				<linearGradient id="SVGID_00000093150335861346085270000010851599046546009264_" gradientUnits="userSpaceOnUse" x1="-6735.9937" y1="23272.8867" x2="-7036.498" y2="23980.8301" gradientTransform="matrix(-6.050000e-02 0 0 6.050000e-02 -371.5801 -1401.3424)">
				<stop  offset="0" style="stop-color:#FFFFFF"/>
				<stop  offset="2.930000e-02" style="stop-color:#F9F6EE"/>
				<stop  offset="0.1641" style="stop-color:#DDCDA6"/>
				<stop  offset="0.285" style="stop-color:#C6AD6C"/>
				<stop  offset="0.3878" style="stop-color:#B69643"/>
				<stop  offset="0.4684" style="stop-color:#AD8829"/>
				<stop  offset="0.5169" style="stop-color:#A98320"/>
				<stop  offset="0.7465" style="stop-color:#8E6A28"/>
				<stop  offset="1" style="stop-color:#745230"/>
			</linearGradient>
			<path style="fill:url(#SVGID_00000093150335861346085270000010851599046546009264_);" d="M52,43.2c0.1,0.4,0.1,0.8,0.1,1.3
				c0,4.2-2.7,8-6.9,10.6c8.7-4.9,14.5-14.2,14.5-24.9c0-5-2.9-9.6-7.7-13c-5.2-3.7-12.6-6-20.9-6v19C42,30.2,51,35.9,52,43.2z"/>
			
				<linearGradient id="SVGID_00000104675279760793922050000015938500863686858644_" gradientUnits="userSpaceOnUse" x1="7480.9062" y1="-23611.9902" x2="6739.4536" y2="-23611.9902" gradientTransform="matrix(6.050000e-02 0 0 -6.050000e-02 -399.9982 -1384.0204)">
				<stop  offset="0" style="stop-color:#FFFFFF"/>
				<stop  offset="0.1488" style="stop-color:#E5D9BB"/>
				<stop  offset="0.3996" style="stop-color:#BA9C4C"/>
				<stop  offset="0.5112" style="stop-color:#A98320"/>
				<stop  offset="0.6407" style="stop-color:#A57F21"/>
				<stop  offset="0.7811" style="stop-color:#987325"/>
				<stop  offset="0.9261" style="stop-color:#825F2C"/>
				<stop  offset="1" style="stop-color:#745230"/>
			</linearGradient>
			<path style="fill:url(#SVGID_00000104675279760793922050000015938500863686858644_);" d="M52,43.2c-5.2,3.7-12.6,6-20.9,6
				s-15.6-2.3-20.9-6c-4.8-3.4-7.7-8-7.7-13c0,10.7,5.8,19.9,14.5,24.9c3.9,2.2,8.5,3.6,13.3,3.7c0,0,0,0,0.1,0c0.2,0,0.5,0,0.7,0
				l0,0l0,0c0.2,0,0.5,0,0.7,0c0,0,0,0,0.1,0c4.8-0.1,9.4-1.5,13.3-3.7c4.2-2.6,6.9-6.4,6.9-10.6C52,44.1,52,43.6,52,43.2z"/>
			
				<linearGradient id="SVGID_00000152973665277075476550000018245573929871808138_" gradientUnits="userSpaceOnUse" x1="7045.4419" y1="-23765.4824" x2="6744.9683" y2="-23057.6113" gradientTransform="matrix(6.050000e-02 0 0 -6.050000e-02 -399.9982 -1384.0204)">
				<stop  offset="0" style="stop-color:#FFFFFF"/>
				<stop  offset="2.930000e-02" style="stop-color:#F9F6EE"/>
				<stop  offset="0.1641" style="stop-color:#DDCDA6"/>
				<stop  offset="0.285" style="stop-color:#C6AD6C"/>
				<stop  offset="0.3878" style="stop-color:#B69643"/>
				<stop  offset="0.4684" style="stop-color:#AD8829"/>
				<stop  offset="0.5169" style="stop-color:#A98320"/>
				<stop  offset="0.7465" style="stop-color:#8E6A28"/>
				<stop  offset="1" style="stop-color:#745230"/>
			</linearGradient>
			<path style="fill:url(#SVGID_00000152973665277075476550000018245573929871808138_);" d="M10.2,17.2c-0.1-0.4-0.1-0.9-0.1-1.3
				c0-4.2,2.6-8,6.9-10.6C8.4,10.3,2.5,19.6,2.5,30.2c0,5,2.9,9.6,7.7,13c5.2,3.7,12.6,6,20.9,6v-19C20.2,30.2,11.2,24.5,10.2,17.2z
				"/>
		</g>
	</g>
</g>
<line class="st6" x1="196" y1="9.2" x2="196" y2="49.2"/>
<g class="st7">
	<path class="st0" d="M217.8,12.7h2.6v13.7c0,7.7-1.3,14.6-11.4,18.9c-0.3-0.6-1.1-1.7-1.6-2.2c7.1-3,9.4-7.2,10.1-12.1
		c-3.2,1.6-6.5,3.2-9.1,4.5l-1.2-2.6c2.7-1,6.7-2.7,10.6-4.5c0-0.6,0-1.3,0-2V12.7z M213.8,25.3c-0.9-2.3-3.2-6-5.4-8.7l2.2-1.2
		c2.2,2.6,4.5,6.2,5.5,8.5L213.8,25.3z M235.8,42.1c1.3,0,1.5-0.9,1.7-4.4c0.6,0.5,1.7,1,2.4,1.2c-0.4,4.3-1.1,5.8-4,5.8h-6
		c-3.2,0-4.1-1-4.1-4.6V12.7h2.6v15.2l0.8-0.9c3.6,1.9,8.2,4.7,10.4,6.8l-1.7,2.2c-2-1.9-6.1-4.7-9.5-6.7V40c0,1.7,0.3,2.1,1.8,2.1
		H235.8z M238.2,16.5c-1.9,3-4.3,6.5-6.3,8.8l-2.1-1.2c1.9-2.3,4.4-6.2,5.7-8.9L238.2,16.5z"/>
	<path class="st0" d="M278.2,42.2v2.1h-31.6v-2.1h9.6c-0.4-1.1-1.1-2.4-1.8-3.5l0.9-0.3h-4.1v-6.6H274v6.6h-3.8l0.7,0.2
		c-0.7,1.3-1.5,2.5-2.2,3.5H278.2z M277.7,30h-30.6v-1.9h30.6V30z M276.2,26.3h-27.6V13.1h2.3v11.2h4.2v-1.9h-3.2V21h3.2v-1.7h-2.7
		v-1.5h2.7v-1.7h-3.1v-1.5h3.1v-1.9h1.7v1.9h3.1v1.5h-3.1v1.7h2.8v1.5h-2.8V21h3.3v1.5h-3.3v1.9h4.3V12.2h2.3v12.1h4.2v-1.9h-3.3V21
		h3.3v-1.7H265v-1.5h2.8v-1.7h-3.1v-1.5h3.1v-1.9h1.8v1.9h3.1v1.5h-3.1v1.7h2.8v1.5h-2.8V21h3.3v1.5h-3.3v1.9h4.3V13.1h2.4V26.3z
		 M253.7,36.6h17.7v-3.1h-17.7V36.6z M256.9,38.4c0.8,1.1,1.5,2.5,1.8,3.5l-0.8,0.3h8.8l-0.6-0.2c0.6-1,1.5-2.4,2.1-3.5H256.9z"/>
	<path class="st0" d="M317.6,37.1H309v5.1c0,1.4-0.3,2.1-1.4,2.4c-1.1,0.4-2.9,0.4-5.8,0.4c-0.1-0.7-0.5-1.7-0.9-2.3
		c2.2,0.1,4.2,0.1,4.8,0c0.5,0,0.7-0.2,0.7-0.6v-5.1h-13.6c2.1,1.2,4.6,3.1,5.9,4.4l-1.9,1.8c-1.3-1.4-3.8-3.3-5.9-4.7l1.8-1.5h-7.5
		v-2.2h21.3v-2.2c-7.4,0.2-14.6,0.4-19.8,0.4l-0.1-2.1c3.6,0,8.3,0,13.4-0.1v-2h-11v-9.8h11v-2h-13.8V15H300v-2.7h2.6V15h13.6v2.2
		h-13.6v2H314v9.8h-4.2c2.4,1,5,2.4,6.4,3.5l-1.6,1.5c-0.5-0.4-1.3-0.9-2.1-1.4l-3.6,0.1v2.3h8.6V37.1z M291.5,23.1h8.5V21h-8.5
		V23.1z M300,27.1v-2.2h-8.5v2.2H300z M302.6,21v2.2h8.7V21H302.6z M311.3,24.9h-8.7v2.2h8.7V24.9z M302.6,30.9l6.8-0.1
		c-0.9-0.4-1.9-0.8-2.7-1.1l0.9-0.8h-4.9V30.9z"/>
	<path class="st0" d="M350.1,40.9c1.9,0,4.7-0.1,6-0.4c0.1,0.8,0.3,2,0.4,2.6c-0.9,0.3-3.7,0.3-6.4,0.3h-15.8c-5.5,0-8.2-1.7-8.2-7
		V16.3h-1.5v-2.4h30.2v2.4h-26.1v20.3c0,3.1,1.4,4.3,5.3,4.3H350.1z M331.5,29h9.4v9.2h-9.4V29z M333.8,36.3h4.8V31h-4.8V36.3z
		 M348.8,26.6h-13.4v-8h13.4V26.6z M346.1,20.5h-8.2v4.1h8.2V20.5z M353,38.2h-9.7V29h9.7V38.2z M350.6,31h-5v5.3h5V31z"/>
</g>
</svg>
